<svg xmlns="http://www.w3.org/2000/svg" viewBox="0 0 900 450" role="img" aria-labelledby="title desc">
  <title id="title">Modern Urban Research publication thumbnail</title>
  <desc id="desc">Stylized community co-production and micro-renewal thumbnail.</desc>
  <defs>
    <linearGradient id="bg" x1="0" y1="0" x2="1" y2="1">
      <stop offset="0" stop-color="#f8f3ec"/>
      <stop offset="1" stop-color="#edf3f6"/>
    </linearGradient>
  </defs>
  <rect width="900" height="450" fill="url(#bg)"/>
  <circle cx="708" cy="78" r="120" fill="#500000" opacity="0.08"/>
  <circle cx="176" cy="378" r="135" fill="#d8a442" opacity="0.16"/>
  <g transform="translate(142 102)">
    <rect x="0" y="118" width="615" height="142" rx="18" fill="#ffffff" stroke="#d8c8bc" stroke-width="3"/>
    <path d="M50 208C112 138 196 138 258 208C316 276 408 272 468 204C508 158 556 144 615 160" fill="none" stroke="#500000" stroke-width="10" stroke-linecap="round"/>
    <g fill="#476f5a">
      <circle cx="72" cy="202" r="24"/>
      <circle cx="255" cy="208" r="24"/>
      <circle cx="469" cy="204" r="24"/>
      <circle cx="586" cy="160" r="24"/>
    </g>
    <g fill="#d8a442" opacity="0.92">
      <rect x="86" y="46" width="78" height="66" rx="8"/>
      <rect x="196" y="24" width="96" height="88" rx="8"/>
      <rect x="328" y="58" width="72" height="54" rx="8"/>
      <rect x="444" y="32" width="92" height="80" rx="8"/>
    </g>
    <g fill="#500000" opacity="0.18">
      <rect x="98" y="58" width="18" height="18"/>
      <rect x="126" y="58" width="18" height="18"/>
      <rect x="214" y="42" width="20" height="20"/>
      <rect x="250" y="42" width="20" height="20"/>
      <rect x="464" y="48" width="20" height="20"/>
      <rect x="500" y="48" width="20" height="20"/>
    </g>
  </g>
  <text x="62" y="68" font-family="Georgia, serif" font-size="42" font-weight="700" fill="#500000">MUR</text>
  <text x="62" y="398" font-family="Arial, sans-serif" font-size="24" font-weight="700" fill="#253326">Community micro-renewal mechanism</text>
  <text x="62" y="424" font-family="Arial, sans-serif" font-size="16" fill="#5d6760">Co-production perspective · Wuhan Nanhu Street</text>
</svg>
