<?xml version="1.0" encoding="UTF-8"?>
<svg id="Layer_1" xmlns="http://www.w3.org/2000/svg" xmlns:xlink="http://www.w3.org/1999/xlink" version="1.1" viewBox="0 0 1186.78 302.35">
  <!-- Generator: Adobe Illustrator 29.7.1, SVG Export Plug-In . SVG Version: 2.1.1 Build 8)  -->
  <defs>
    <style>
      .st0 {
        fill: none;
      }

      .st1 {
        fill: #500000;
      }

      .st2 {
        fill: #fff;
      }

      .st3 {
        fill: #b3b4b6;
      }

      .st4 {
        clip-path: url(#clippath);
      }
    </style>
    <clipPath id="clippath">
      <rect class="st0" y="0" width="1186.78" height="302.35"/>
    </clipPath>
  </defs>
  <g id="Layer_11" data-name="Layer_1">
    <path class="st1" d="M55.41,55.41h190.03v191.54H55.41V55.41Z"/>
    <path class="st2" d="M220.2,131.64h-14.92l-.36.73-10.24,21.32-10.26-21.32-.35-.73h-15.75v9.86h3.63v30.51h-3.83v9.86h17.92v-9.86h-3.94v-21.66l11.43,23.6,1.17,2.4,1.18-2.4,11.56-23.65v21.71h-3.83v9.86h17.92v-9.86h-3.94v-30.51h3.94v-9.86h-1.31ZM131.26,171.98h-4.07l-13.26-30.65h2.57v-9.87h-21.32v9.87h2.93l-13.25,30.65h-5.51v9.87h19.32v-9.87h-2.81l2.21-5.1h15.94l2.2,5.1h-2.96v9.87h19.33v-9.87h-1.33ZM109.73,157.01h-7.41l3.7-8.57,3.7,8.57h0Z"/>
    <path class="st2" d="M203.99,93.33h-108.98v31.69h21.54v-12.15h22.94v75.67h-12.15v21.54h45.83v-21.54h-12.14v-75.67h22.79v12.02h21.67v-31.55h-1.49Z"/>
    <path class="st3" d="M164.21,197.37l4.53-4.68v12.82l-4.53-4.34v-3.8ZM156.64,193.04l-4.54,4.47v-93.56l4.54,4.53v84.56ZM104.12,102.3l-4.67-4.54h99.34l-5.88,4.54h-88.79ZM201.2,120.73l-4.54-4.34v-11.55l4.54-4.67v20.56Z"/>
    <g class="st4">
      <g>
        <path class="st1" d="M252.2,243.14c0-2.1,1.71-3.81,3.81-3.81s3.81,1.71,3.81,3.81-1.71,3.81-3.81,3.81-3.81-1.71-3.81-3.81M258.89,243.14c0-1.78-1.28-3.07-2.88-3.07s-2.88,1.28-2.88,3.07,1.28,3.07,2.88,3.07,2.88-1.28,2.88-3.07M254.54,240.97h1.6c1.03,0,1.59.36,1.59,1.26,0,.74-.42,1.09-1.13,1.16l1.16,1.89h-.83l-1.11-1.86h-.49v1.86h-.81v-4.31h.01ZM255.35,242.81h.71c.48,0,.89-.06.89-.65,0-.51-.47-.59-.87-.59h-.72v1.23h-.01Z"/>
        <path class="st2" d="M311.54,110.84h-4.77v-25.03h-8.57v-4.09h21.89v4.09h-8.56v25.03ZM343.06,110.84h-16.46v-29.12h16.46v4.02h-11.71v7.93h10.98v3.98h-10.98v9.15h11.71s0,4.03,0,4.03ZM372.85,110.84h-5.48l-7.28-11.91-7.36,11.91h-5.1l9.66-15.09-9.04-14.02h5.3l6.73,11.02,6.74-11.02h5.13l-9.1,14.1,9.8,15.02h0ZM396.88,110.84l-2.91-8.09h-11.14l-2.84,8.09h-5.02l10.89-29.23h5.18l10.9,29.23h-5.06ZM392.71,98.66l-2.73-7.93c-.2-.53-.48-1.37-.83-2.51-.35-1.15-.59-1.97-.72-2.51-.36,1.63-.88,3.42-1.57,5.35l-2.63,7.59h8.48ZM424.62,102.94c0,2.59-.93,4.62-2.81,6.09-1.87,1.48-4.46,2.21-7.75,2.21s-5.99-.51-8.09-1.54v-4.5c1.33.63,2.74,1.11,4.24,1.48s2.89.54,4.17.54c1.89,0,3.27-.36,4.17-1.07.9-.72,1.35-1.68,1.35-2.89,0-1.08-.41-2.02-1.23-2.77-.83-.75-2.53-1.66-5.1-2.69-2.65-1.07-4.52-2.3-5.62-3.68-1.08-1.38-1.63-3.05-1.63-4.98,0-2.43.86-4.34,2.59-5.73s4.04-2.09,6.95-2.09,5.56.61,8.32,1.84l-1.51,3.89c-2.59-1.08-4.9-1.63-6.93-1.63-1.54,0-2.71.33-3.5,1.01-.8.67-1.19,1.55-1.19,2.66,0,.75.16,1.4.48,1.94.32.54.84,1.05,1.57,1.53.73.48,2.04,1.1,3.94,1.89,2.13.89,3.7,1.72,4.7,2.49,1,.76,1.73,1.63,2.2,2.61.47.97.7,2.11.7,3.43M462.99,110.84l-2.91-8.09h-11.14l-2.84,8.09h-5.02l10.89-29.23h5.18l10.9,29.23h-5.06ZM458.83,98.66l-2.73-7.93c-.2-.53-.48-1.37-.83-2.51-.35-1.15-.59-1.97-.72-2.51-.36,1.63-.88,3.42-1.57,5.35l-2.63,7.59h8.48ZM471.99,103.14c0-1.74.42-3.26,1.27-4.55.85-1.3,2.38-2.58,4.6-3.85-1.26-1.48-2.12-2.72-2.58-3.74s-.69-2.07-.69-3.15c0-2.02.72-3.61,2.17-4.78,1.44-1.17,3.38-1.75,5.81-1.75s4.2.56,5.54,1.7,2.01,2.66,2.01,4.6c0,1.52-.45,2.89-1.35,4.12-.89,1.23-2.39,2.47-4.49,3.7l6.89,6.66c1.07-1.42,1.97-3.5,2.7-6.25h4.82c-.92,3.77-2.42,6.85-4.46,9.22l6,5.8h-6.03l-2.97-2.89c-1.36,1.09-2.8,1.91-4.33,2.46-1.54.55-3.23.83-5.08.83-3.06,0-5.46-.72-7.19-2.18s-2.61-3.43-2.61-5.93M482.04,107.22c2.43,0,4.5-.71,6.23-2.13l-7.62-7.5c-1.41.9-2.38,1.75-2.91,2.55-.53.79-.8,1.69-.8,2.7,0,1.3.46,2.36,1.38,3.17s2.17,1.22,3.72,1.22M479.06,88c0,.84.22,1.62.67,2.37.45.74,1.07,1.54,1.87,2.37,1.5-.85,2.55-1.65,3.15-2.38.61-.73.9-1.56.9-2.48,0-.86-.29-1.55-.87-2.07-.57-.52-1.35-.77-2.3-.77-1.05,0-1.88.28-2.49.81-.63.54-.93,1.25-.93,2.17M518.75,110.84l-8.45-24.32h-.16c.22,3.61.34,7,.34,10.16v14.16h-4.32v-29.12h6.71l8.09,23.16h.12l8.32-23.16h6.73v29.12h-4.59v-14.39c0-1.44.04-3.33.11-5.66.07-2.32.14-3.73.19-4.22h-.16l-8.75,24.28h-4.2.02ZM581.31,81.73v18.84c0,2.15-.46,4.03-1.38,5.65s-2.26,2.86-4,3.73c-1.75.87-3.83,1.31-6.26,1.31-3.61,0-6.42-.96-8.43-2.87-2.01-1.91-3-4.54-3-7.89v-18.76h4.78v18.42c0,2.4.55,4.18,1.68,5.32,1.11,1.14,2.82,1.71,5.14,1.71,4.49,0,6.73-2.36,6.73-7.07v-18.39h4.76ZM615.06,110.84h-5.84l-14.32-23.2h-.16l.1,1.3c.19,2.47.28,4.72.28,6.77v15.14h-4.32v-29.12h5.77l14.28,23.09h.12c-.02-.31-.07-1.42-.16-3.33-.07-1.92-.12-3.42-.12-4.49v-15.25h4.36v29.12h.01ZM624.79,81.73h4.76v29.12h-4.76v-29.12ZM655.87,81.73h4.94l-10.2,29.12h-5.02l-10.16-29.12h4.9l6.07,18.1c.32.86.66,1.97,1.02,3.33s.59,2.38.7,3.04c.17-1.01.44-2.18.8-3.5s.65-2.31.87-2.95l6.07-18.02h.01ZM683.16,110.84h-16.47v-29.12h16.47v4.02h-11.72v7.93h10.98v3.98h-10.98v9.15h11.72s0,4.03,0,4.03ZM696.25,99.21v11.63h-4.76v-29.12h8.23c3.76,0,6.54.7,8.34,2.11,1.8,1.4,2.71,3.53,2.71,6.37,0,3.63-1.89,6.21-5.66,7.75l8.23,12.89h-5.41l-6.97-11.63h-4.7ZM696.25,95.27h3.3c2.22,0,3.82-.41,4.82-1.23,1-.83,1.5-2.05,1.5-3.66s-.54-2.83-1.61-3.55c-1.07-.72-2.7-1.07-4.86-1.07h-3.14v9.52h0ZM736.4,102.94c0,2.59-.93,4.62-2.81,6.09-1.87,1.48-4.46,2.21-7.75,2.21s-5.99-.51-8.09-1.54v-4.5c1.33.63,2.74,1.11,4.24,1.48s2.89.54,4.17.54c1.89,0,3.27-.36,4.17-1.07.9-.72,1.35-1.68,1.35-2.89,0-1.08-.41-2.02-1.23-2.77-.83-.75-2.53-1.66-5.1-2.69-2.65-1.07-4.53-2.3-5.62-3.68-1.08-1.38-1.63-3.05-1.63-4.98,0-2.43.86-4.34,2.59-5.73s4.04-2.09,6.95-2.09,5.56.61,8.32,1.84l-1.51,3.89c-2.59-1.08-4.9-1.63-6.93-1.63-1.54,0-2.71.33-3.5,1.01-.8.67-1.19,1.55-1.19,2.66,0,.75.16,1.4.48,1.94s.84,1.05,1.57,1.53c.73.48,2.04,1.1,3.94,1.89,2.13.89,3.7,1.72,4.7,2.49,1,.76,1.73,1.63,2.2,2.61.47.97.7,2.11.7,3.43M744.07,81.73h4.76v29.12h-4.76v-29.12ZM768.62,110.84h-4.76v-25.03h-8.57v-4.09h21.89v4.09h-8.57v25.03ZM791.9,95.02l6.9-13.29h5.17l-9.69,17.83v11.28h-4.79v-11.12l-9.66-17.99h5.18s6.89,13.29,6.89,13.29ZM326.19,153.37c-6.4,0-11.46,2.13-15.17,6.4-3.7,4.27-5.56,10.11-5.56,17.52s1.78,13.52,5.36,17.67c3.58,4.16,8.67,6.24,15.29,6.24,4.07,0,8.7-.73,13.92-2.2v5.94c-4.03,1.52-9.02,2.27-14.95,2.27-8.59,0-15.21-2.6-19.87-7.81s-7-12.61-7-22.21c0-6.01,1.13-11.26,3.37-15.78s5.49-8,9.72-10.45,9.22-3.67,14.97-3.67c6.11,0,11.45,1.11,16.03,3.34l-2.87,5.82c-4.42-2.07-8.82-3.11-13.24-3.11M389.45,184.53c0,7.12-1.79,12.69-5.38,16.69-3.59,4-8.55,6-14.87,6-3.91,0-7.38-.91-10.4-2.75-3.03-1.84-5.37-4.47-7.02-7.89-1.65-3.43-2.47-7.44-2.47-12.04,0-7.12,1.78-12.67,5.34-16.64,3.56-3.97,8.5-5.96,14.83-5.96s10.97,2.04,14.57,6.1c3.6,4.07,5.4,9.56,5.4,16.51M356.17,184.53c0,5.58,1.11,9.83,3.34,12.76,2.23,2.92,5.52,4.38,9.85,4.38s7.62-1.45,9.86-4.36c2.24-2.91,3.37-7.17,3.37-12.78s-1.13-9.78-3.37-12.65c-2.25-2.89-5.56-4.32-9.95-4.32s-7.6,1.42-9.81,4.27c-2.21,2.84-3.31,7.08-3.31,12.72M401.05,144.4h6.61v62.02h-6.61v-62.02ZM421.7,144.4h6.61v62.02h-6.61v-62.02ZM460.81,207.22c-6.45,0-11.55-1.96-15.29-5.9-3.74-3.94-5.6-9.39-5.6-16.38s1.73-12.63,5.2-16.78c3.47-4.15,8.12-6.22,13.97-6.22,5.48,0,9.81,1.8,12.99,5.4,3.2,3.6,4.79,8.35,4.79,14.25v4.18h-30.09c.13,5.13,1.43,9.02,3.89,11.68,2.46,2.65,5.92,3.98,10.38,3.98,4.7,0,9.35-.99,13.95-2.95v5.9c-2.34,1.01-4.55,1.73-6.63,2.18-2.09.44-4.61.66-7.56.66M459.01,167.48c-3.51,0-6.31,1.15-8.39,3.43-2.09,2.28-3.31,5.45-3.68,9.49h22.84c0-4.17-.93-7.37-2.79-9.59s-4.52-3.33-7.97-3.33M523.91,162.73v4.18l-8.09.96c.74.93,1.41,2.14,2,3.65.58,1.5.88,3.2.88,5.08,0,4.28-1.46,7.7-4.38,10.24s-6.94,3.83-12.04,3.83c-1.31,0-2.53-.11-3.67-.32-2.81,1.49-4.22,3.37-4.22,5.62,0,1.2.49,2.08,1.48,2.65.99.57,2.68.86,5.06.86h7.74c4.73,0,8.36,1,10.9,2.99,2.54,2,3.81,4.89,3.81,8.69,0,4.84-1.94,8.52-5.82,11.06-3.89,2.54-9.54,3.81-16.98,3.81-5.71,0-10.12-1.06-13.22-3.18s-4.65-5.13-4.65-9.01c0-2.65.85-4.96,2.55-6.9s4.09-3.26,7.18-3.95c-1.11-.5-2.05-1.28-2.81-2.36-.75-1.06-1.14-2.3-1.14-3.7,0-1.59.42-2.99,1.27-4.18.85-1.2,2.2-2.36,4.02-3.47-2.26-.93-4.1-2.52-5.52-4.74-1.42-2.23-2.13-4.79-2.13-7.65,0-4.79,1.43-8.47,4.3-11.06,2.88-2.59,6.94-3.89,12.2-3.89,2.28,0,4.34.27,6.18.8h15.12ZM489.07,213.76c0,2.37,1,4.16,2.99,5.38,2,1.22,4.85,1.84,8.57,1.84,5.55,0,9.67-.83,12.33-2.49,2.68-1.66,4-3.92,4-6.75,0-2.37-.73-4-2.2-4.93-1.46-.91-4.21-1.37-8.25-1.37h-7.93c-3,0-5.34.72-7.02,2.15s-2.52,3.49-2.52,6.18M492.66,176.72c0,3.06.86,5.37,2.59,6.93,1.73,1.57,4.13,2.36,7.22,2.36,6.45,0,9.68-3.13,9.68-9.41s-3.27-9.84-9.81-9.84c-3.11,0-5.5.84-7.18,2.52s-2.52,4.16-2.52,7.45M551.33,207.22c-6.45,0-11.55-1.96-15.29-5.9-3.74-3.94-5.6-9.39-5.6-16.38s1.73-12.63,5.2-16.78,8.12-6.22,13.97-6.22c5.48,0,9.81,1.8,12.99,5.4,3.2,3.6,4.79,8.35,4.79,14.25v4.18h-30.09c.13,5.13,1.43,9.02,3.89,11.68,2.46,2.65,5.92,3.98,10.38,3.98,4.7,0,9.35-.99,13.95-2.95v5.9c-2.34,1.01-4.55,1.73-6.63,2.18-2.09.44-4.61.66-7.56.66M549.54,167.48c-3.51,0-6.31,1.15-8.39,3.43-2.09,2.28-3.31,5.45-3.68,9.49h22.84c0-4.17-.93-7.37-2.79-9.59s-4.52-3.33-7.97-3.33M637.6,184.53c0,7.12-1.79,12.69-5.38,16.69-3.59,4-8.55,6-14.87,6-3.91,0-7.38-.91-10.4-2.75s-5.37-4.47-7.02-7.89c-1.65-3.43-2.47-7.44-2.47-12.04,0-7.12,1.78-12.67,5.34-16.64,3.56-3.97,8.5-5.96,14.83-5.96s10.97,2.04,14.57,6.1c3.6,4.07,5.4,9.56,5.4,16.51M604.31,184.53c0,5.58,1.11,9.83,3.34,12.76,2.23,2.92,5.52,4.38,9.85,4.38s7.62-1.45,9.86-4.36c2.24-2.91,3.37-7.17,3.37-12.78s-1.13-9.78-3.37-12.65c-2.25-2.89-5.56-4.32-9.95-4.32s-7.6,1.42-9.81,4.27c-2.21,2.84-3.31,7.08-3.31,12.72M668.9,167.88h-11.12v38.54h-6.61v-38.54h-7.81v-2.99l7.81-2.39v-2.43c0-10.73,4.69-16.1,14.08-16.1,2.31,0,5.02.47,8.13,1.4l-1.71,5.3c-2.55-.83-4.73-1.23-6.54-1.23-2.49,0-4.34.83-5.54,2.49s-1.79,4.32-1.79,7.99v2.83h11.12v5.14h-.01ZM735.7,206.42l-7.25-18.53h-23.36l-7.18,18.53h-6.86l23.05-58.52h5.7l22.92,58.52h-7.02ZM726.33,181.79l-6.77-18.06c-.88-2.28-1.78-5.08-2.71-8.41-.58,2.55-1.42,5.35-2.51,8.41l-6.86,18.06h18.85-.01ZM769.67,161.93c1.94,0,3.68.16,5.22.48l-.91,6.14c-1.8-.4-3.41-.59-4.79-.59-3.53,0-6.56,1.43-9.07,4.31-2.52,2.87-3.77,6.44-3.77,10.72v23.44h-6.61v-43.69h5.46l.75,8.09h.32c1.62-2.84,3.58-5.03,5.86-6.58,2.28-1.54,4.8-2.31,7.54-2.31M800.51,207.22c-6.33,0-11.22-1.94-14.69-5.84s-5.2-9.41-5.2-16.53,1.76-12.95,5.29-16.94c3.52-3.98,8.53-5.98,15.05-5.98,2.1,0,4.2.22,6.29.68,2.1.46,3.75.99,4.95,1.59l-2.04,5.62c-1.46-.58-3.06-1.07-4.79-1.45s-3.26-.57-4.59-.57c-8.87,0-13.31,5.66-13.31,16.98,0,5.37,1.08,9.49,3.25,12.36s5.37,4.31,9.63,4.31c3.64,0,7.38-.79,11.2-2.36v5.86c-2.93,1.52-6.6,2.27-11.04,2.27M851.82,206.42v-28.26c0-3.56-.81-6.22-2.43-7.97-1.62-1.75-4.16-2.63-7.61-2.63-4.6,0-7.95,1.25-10.06,3.75s-3.17,6.59-3.17,12.28v22.84h-6.61v-62.02h6.61v18.78c0,2.26-.11,4.13-.32,5.62h.4c1.31-2.1,3.15-3.76,5.56-4.97,2.4-1.21,5.15-1.82,8.23-1.82,5.34,0,9.35,1.26,12.02,3.8,2.68,2.54,4,6.57,4,12.1v28.5h-6.61ZM871.48,150.9c0-1.52.37-2.62,1.11-3.32s1.68-1.05,2.79-1.05,1.97.36,2.75,1.07c.77.72,1.16,1.82,1.16,3.31s-.38,2.6-1.16,3.33c-.77.73-1.69,1.09-2.75,1.09-1.11,0-2.05-.36-2.79-1.09s-1.11-1.84-1.11-3.33M878.65,206.42h-6.61v-43.69h6.61v43.69h0ZM906.79,201.75c1.17,0,2.29-.08,3.39-.25s1.95-.35,2.59-.54v5.06c-.72.35-1.77.63-3.17.86-1.39.22-2.65.34-3.77.34-8.45,0-12.67-4.45-12.67-13.35v-25.99h-6.26v-3.18l6.26-2.75,2.79-9.33h3.83v10.13h12.67v5.14h-12.67v25.71c0,2.63.63,4.65,1.87,6.06,1.25,1.41,2.96,2.11,5.15,2.11M939.96,207.22c-6.45,0-11.55-1.96-15.29-5.9-3.74-3.94-5.6-9.39-5.6-16.38s1.73-12.63,5.2-16.78c3.47-4.15,8.12-6.22,13.97-6.22,5.48,0,9.81,1.8,12.99,5.4s4.79,8.35,4.79,14.25v4.18h-30.09c.13,5.13,1.42,9.02,3.89,11.68,2.46,2.65,5.92,3.98,10.38,3.98,4.7,0,9.35-.99,13.95-2.95v5.9c-2.34,1.01-4.55,1.73-6.63,2.18-2.09.44-4.61.66-7.56.66M938.16,167.48c-3.51,0-6.31,1.15-8.4,3.43s-3.31,5.45-3.68,9.49h22.84c0-4.17-.93-7.37-2.79-9.59s-4.52-3.33-7.97-3.33M984.76,207.22c-6.33,0-11.22-1.94-14.69-5.84-3.47-3.9-5.2-9.41-5.2-16.53s1.76-12.95,5.29-16.94c3.52-3.98,8.53-5.98,15.05-5.98,2.1,0,4.2.22,6.29.68,2.1.46,3.75.99,4.95,1.59l-2.04,5.62c-1.46-.58-3.06-1.07-4.79-1.45s-3.26-.57-4.59-.57c-8.87,0-13.31,5.66-13.31,16.98,0,5.37,1.08,9.49,3.25,12.36s5.37,4.31,9.63,4.31c3.64,0,7.38-.79,11.2-2.36v5.86c-2.92,1.52-6.6,2.27-11.04,2.27M1020.28,201.75c1.17,0,2.29-.08,3.39-.25s1.95-.35,2.59-.54v5.06c-.72.35-1.77.63-3.17.86-1.39.22-2.65.34-3.77.34-8.45,0-12.67-4.45-12.67-13.35v-25.99h-6.26v-3.18l6.26-2.75,2.79-9.33h3.83v10.13h12.67v5.14h-12.67v25.71c0,2.63.63,4.65,1.87,6.06,1.25,1.41,2.96,2.11,5.15,2.11M1041.21,162.73v28.34c0,3.56.81,6.22,2.43,7.97,1.62,1.75,4.16,2.63,7.61,2.63,4.58,0,7.91-1.25,10.02-3.75s3.17-6.58,3.17-12.24v-22.96h6.61v43.69h-5.46l-.96-5.86h-.36c-1.36,2.15-3.24,3.8-5.64,4.95-2.41,1.15-5.15,1.72-8.24,1.72-5.32,0-9.3-1.26-11.94-3.79s-3.97-6.56-3.97-12.12v-28.59h6.71ZM1105.03,161.93c1.94,0,3.68.16,5.22.48l-.91,6.14c-1.8-.4-3.4-.59-4.79-.59-3.53,0-6.56,1.43-9.07,4.31-2.52,2.87-3.77,6.44-3.77,10.72v23.44h-6.61v-43.69h5.46l.75,8.09h.32c1.62-2.84,3.58-5.03,5.86-6.58,2.28-1.54,4.8-2.31,7.54-2.31M1136.88,207.22c-6.45,0-11.55-1.96-15.29-5.9-3.74-3.94-5.6-9.39-5.6-16.38s1.73-12.63,5.2-16.78c3.47-4.15,8.12-6.22,13.97-6.22,5.48,0,9.81,1.8,12.99,5.4s4.79,8.35,4.79,14.25v4.18h-30.09c.13,5.13,1.42,9.02,3.89,11.68,2.46,2.65,5.92,3.98,10.38,3.98,4.7,0,9.35-.99,13.95-2.95v5.9c-2.34,1.01-4.55,1.73-6.63,2.18-2.09.44-4.61.66-7.56.66M1135.08,167.48c-3.51,0-6.31,1.15-8.4,3.43-2.09,2.28-3.31,5.45-3.68,9.49h22.84c0-4.17-.93-7.37-2.79-9.59s-4.52-3.33-7.97-3.33"/>
      </g>
    </g>
  </g>
</svg>