<svg class="{{ class }}" xmlns="http://www.w3.org/2000/svg" viewBox="0 0 1118 284.83">
	<title id="tamu-logo-title">
		{{ title }}
	</title>
	<desc id="tamu-logo-desc">
		{{ desc }}
	</desc>
  <defs>
    <clipPath id="clippath">
      <path d="M0 0h1118v284.83H0z" style="fill:none"/>
    </clipPath>
    <style>
      .cls-2{fill:#500000}.cls-3{fill:#ffffff}.cls-4{fill:#ffffff}.cls-5{fill:#b3b4b6}
    </style>
  </defs>
  <g id="Layer_1">
    <path d="M52.2 52.2h179.02v180.44H52.2z" class="cls-2"/>
    <path d="M207.44 124.01H193.38l-.34.69-9.65 20.08-9.67-20.08-.33-.69h-14.84V133.3h3.42v28.74h-3.61V171.33h16.88V162.04h-3.71v-20.4l10.77 22.23 1.1 2.26 1.11-2.26 10.89-22.28v20.45h-3.61V171.33h16.88V162.04h-3.71V133.3h3.71V124.01h-1.23zM123.65 162.01h-3.83l-12.49-28.87h2.42v-9.3H89.67v9.3h2.76l-12.48 28.87h-5.19v9.3h18.2v-9.3h-2.65l2.08-4.8h15.02l2.07 4.8h-2.79v9.3h18.21v-9.3h-1.23Zm-20.28-14.1h-6.98l3.49-8.07 3.49 8.07Z" class="cls-4"/>
    <path d="M192.17 87.92H89.51V117.77h20.29V106.32h21.61v71.28H119.96v20.29h43.17V177.6h-11.44v-71.28h21.47v11.32h20.41V87.92h-1.4z" class="cls-4"/>
    <path d="m154.69 185.93 4.27-4.41v12.08l-4.27-4.09v-3.58zM147.56 181.85l-4.28 4.21V97.92l4.28 4.27v79.66zM98.09 96.37l-4.4-4.28h93.58l-5.54 4.28H98.09zM189.54 113.73l-4.28-4.09V98.76l4.28-4.4v19.37z" class="cls-5"/>
    <g style="clip-path:url(#clippath)">
      <path d="M237.58 229.05c0-1.98 1.61-3.59 3.59-3.59s3.59 1.61 3.59 3.59-1.61 3.59-3.59 3.59-3.59-1.61-3.59-3.59m6.31 0c0-1.68-1.21-2.89-2.71-2.89s-2.71 1.21-2.71 2.89 1.21 2.89 2.71 2.89 2.71-1.21 2.71-2.89m-4.1-2.05h1.51c.97 0 1.5.34 1.5 1.19 0 .7-.4 1.03-1.06 1.09l1.09 1.78h-.78l-1.05-1.75h-.46v1.75h-.76V227Zm.76 1.74h.67c.45 0 .84-.06.84-.61 0-.48-.44-.56-.82-.56h-.68v1.16Z" class="cls-2"/>
      <path d="M293.48 104.42h-4.49V80.84h-8.07v-3.85h20.62v3.85h-8.06v23.58zM323.18 104.42h-15.51V76.99h15.51v3.79h-11.03v7.47h10.34V92h-10.34v8.62h11.03v3.8zM351.24 104.42h-5.16l-6.86-11.22-6.93 11.22h-4.8l9.1-14.22-8.52-13.21h4.99l6.34 10.38 6.35-10.38h4.83l-8.57 13.28 9.23 14.15zM373.88 104.42l-2.74-7.62h-10.49l-2.68 7.62h-4.73l10.26-27.54h4.88l10.27 27.54h-4.77Zm-3.93-11.48-2.57-7.47c-.19-.5-.45-1.29-.78-2.36-.33-1.08-.56-1.86-.68-2.36-.34 1.54-.83 3.22-1.48 5.04l-2.48 7.15h7.99ZM400.01 96.97c0 2.44-.88 4.35-2.65 5.74-1.76 1.39-4.2 2.08-7.3 2.08s-5.64-.48-7.62-1.45V99.1c1.25.59 2.58 1.05 3.99 1.39 1.41.34 2.72.51 3.93.51 1.78 0 3.08-.34 3.93-1.01.85-.68 1.27-1.58 1.27-2.72 0-1.02-.39-1.9-1.16-2.61-.78-.71-2.38-1.56-4.8-2.53-2.5-1.01-4.26-2.17-5.29-3.47-1.02-1.3-1.54-2.87-1.54-4.69 0-2.29.81-4.09 2.44-5.4 1.63-1.31 3.81-1.97 6.55-1.97s5.24.57 7.84 1.73l-1.42 3.66c-2.44-1.02-4.62-1.54-6.53-1.54-1.45 0-2.55.31-3.3.95-.75.63-1.12 1.46-1.12 2.51 0 .71.15 1.32.45 1.83.3.51.79.99 1.48 1.44.69.45 1.92 1.04 3.71 1.78 2.01.84 3.49 1.62 4.43 2.35.94.72 1.63 1.54 2.07 2.46.44.91.66 1.99.66 3.23M436.16 104.42l-2.74-7.62h-10.49l-2.68 7.62h-4.73l10.26-27.54h4.88l10.27 27.54h-4.77Zm-3.92-11.48-2.57-7.47c-.19-.5-.45-1.29-.78-2.36-.33-1.08-.56-1.86-.68-2.36-.34 1.54-.83 3.22-1.48 5.04l-2.48 7.15h7.99ZM444.64 97.16c0-1.64.4-3.07 1.2-4.29.8-1.22 2.24-2.43 4.33-3.63-1.19-1.39-2-2.56-2.43-3.52-.43-.96-.65-1.95-.65-2.97 0-1.9.68-3.4 2.04-4.5 1.36-1.1 3.18-1.65 5.47-1.65s3.96.53 5.22 1.6c1.26 1.07 1.89 2.51 1.89 4.33 0 1.43-.42 2.72-1.27 3.88-.84 1.16-2.25 2.33-4.23 3.49l6.49 6.27c1.01-1.34 1.86-3.3 2.54-5.89h4.54c-.87 3.55-2.28 6.45-4.2 8.69l5.65 5.46h-5.68l-2.8-2.72c-1.28 1.03-2.64 1.8-4.08 2.32-1.45.52-3.04.78-4.79.78-2.88 0-5.14-.68-6.77-2.05s-2.46-3.23-2.46-5.59m9.45 3.84c2.29 0 4.24-.67 5.87-2.01l-7.18-7.07c-1.33.85-2.24 1.65-2.74 2.4-.5.74-.75 1.59-.75 2.54 0 1.22.43 2.22 1.3 2.99.87.77 2.04 1.15 3.5 1.15m-2.8-18.11c0 .79.21 1.53.63 2.23.42.7 1.01 1.45 1.76 2.23 1.41-.8 2.4-1.55 2.97-2.24.57-.69.85-1.47.85-2.34 0-.81-.27-1.46-.82-1.95-.54-.49-1.27-.73-2.17-.73-.99 0-1.77.26-2.35.76-.59.51-.88 1.18-.88 2.04M488.69 104.42l-7.96-22.91h-.15c.21 3.4.32 6.59.32 9.57v13.34h-4.07V76.99h6.32l7.62 21.82h.11l7.84-21.82h6.34v27.43h-4.32V90.86c0-1.36.04-3.14.1-5.33.07-2.19.13-3.51.18-3.98h-.15l-8.24 22.87h-3.96ZM547.62 76.99v17.75c0 2.03-.43 3.8-1.3 5.32-.87 1.52-2.13 2.69-3.77 3.51-1.65.82-3.61 1.23-5.9 1.23-3.4 0-6.05-.9-7.94-2.7-1.89-1.8-2.83-4.28-2.83-7.43V77h4.5v17.35c0 2.26.52 3.94 1.58 5.01 1.05 1.07 2.66 1.61 4.84 1.61 4.23 0 6.34-2.22 6.34-6.66V76.99h4.48ZM579.41 104.42h-5.5l-13.49-21.86h-.15l.09 1.22c.18 2.33.26 4.45.26 6.38v14.26h-4.07V76.99h5.44l13.45 21.75h.11c-.02-.29-.07-1.34-.15-3.14-.07-1.81-.11-3.22-.11-4.23V77h4.11v27.43ZM588.58 76.99h4.48v27.43h-4.48zM617.86 76.99h4.65l-9.61 27.43h-4.73l-9.57-27.43h4.62l5.72 17.05c.3.81.62 1.86.96 3.14.34 1.28.56 2.24.66 2.86.16-.95.41-2.05.75-3.3s.61-2.18.82-2.78l5.72-16.98ZM643.57 104.42h-15.52V76.99h15.52v3.79h-11.04v7.47h10.34V92h-10.34v8.62h11.04v3.8zM655.9 93.46v10.96h-4.48V76.99h7.75c3.54 0 6.16.66 7.86 1.99 1.7 1.32 2.55 3.33 2.55 6 0 3.42-1.78 5.85-5.33 7.3l7.75 12.14h-5.1l-6.57-10.96h-4.43Zm0-3.71h3.11c2.09 0 3.6-.39 4.54-1.16.94-.78 1.41-1.93 1.41-3.45s-.51-2.67-1.52-3.34c-1.01-.68-2.54-1.01-4.58-1.01h-2.96v8.97ZM693.72 96.97c0 2.44-.88 4.35-2.65 5.74-1.76 1.39-4.2 2.08-7.3 2.08s-5.64-.48-7.62-1.45V99.1c1.25.59 2.58 1.05 3.99 1.39 1.41.34 2.72.51 3.93.51 1.78 0 3.08-.34 3.93-1.01.85-.68 1.27-1.58 1.27-2.72 0-1.02-.39-1.9-1.16-2.61-.78-.71-2.38-1.56-4.8-2.53-2.5-1.01-4.27-2.17-5.29-3.47-1.02-1.3-1.54-2.87-1.54-4.69 0-2.29.81-4.09 2.44-5.4 1.63-1.31 3.81-1.97 6.55-1.97s5.24.57 7.84 1.73l-1.42 3.66c-2.44-1.02-4.62-1.54-6.53-1.54-1.45 0-2.55.31-3.3.95-.75.63-1.12 1.46-1.12 2.51 0 .71.15 1.32.45 1.83.3.51.79.99 1.48 1.44.69.45 1.92 1.04 3.71 1.78 2.01.84 3.49 1.62 4.43 2.35.94.72 1.63 1.54 2.07 2.46.44.91.66 1.99.66 3.23M700.95 76.99h4.48v27.43h-4.48zM724.07 104.42h-4.48V80.84h-8.07v-3.85h20.62v3.85h-8.07v23.58zM746.01 89.51l6.5-12.52h4.87l-9.13 16.8v10.63h-4.51V93.94l-9.1-16.95h4.88l6.49 12.52zM307.29 144.48c-6.03 0-10.8 2.01-14.29 6.03-3.49 4.02-5.24 9.52-5.24 16.5s1.68 12.74 5.05 16.65c3.37 3.92 8.17 5.88 14.4 5.88 3.83 0 8.2-.69 13.11-2.07v5.6c-3.8 1.43-8.5 2.14-14.08 2.14-8.09 0-14.33-2.45-18.72-7.36-4.39-4.91-6.59-11.88-6.59-20.92 0-5.66 1.06-10.61 3.17-14.87s5.17-7.54 9.16-9.84 8.69-3.46 14.1-3.46c5.76 0 10.79 1.05 15.1 3.15l-2.7 5.48c-4.16-1.95-8.31-2.93-12.47-2.93M366.88 173.84c0 6.71-1.69 11.95-5.07 15.72s-8.05 5.65-14.01 5.65c-3.68 0-6.95-.86-9.8-2.59-2.85-1.73-5.06-4.21-6.61-7.43-1.55-3.23-2.33-7.01-2.33-11.34 0-6.71 1.68-11.94 5.03-15.68 3.35-3.74 8.01-5.61 13.97-5.61s10.33 1.92 13.73 5.75c3.39 3.83 5.09 9.01 5.09 15.55m-31.35-.02c0 5.26 1.05 9.26 3.15 12.02 2.1 2.75 5.2 4.13 9.28 4.13s7.18-1.37 9.29-4.11c2.11-2.74 3.17-6.75 3.17-12.04s-1.06-9.21-3.17-11.92c-2.12-2.72-5.24-4.07-9.37-4.07s-7.16 1.34-9.24 4.02c-2.08 2.68-3.12 6.67-3.12 11.98M377.81 136.03h6.23v58.43h-6.23zM397.26 136.03h6.23v58.43h-6.23zM434.1 195.21c-6.08 0-10.88-1.85-14.4-5.56-3.52-3.71-5.28-8.85-5.28-15.43s1.63-11.9 4.9-15.81c3.27-3.91 7.65-5.86 13.16-5.86 5.16 0 9.24 1.7 12.24 5.09 3.01 3.39 4.51 7.87 4.51 13.42V175h-28.35c.12 4.83 1.35 8.5 3.66 11 2.32 2.5 5.58 3.75 9.78 3.75 4.43 0 8.81-.93 13.14-2.78v5.56c-2.2.95-4.29 1.63-6.25 2.05-1.97.41-4.34.62-7.12.62m-1.68-37.43c-3.31 0-5.94 1.08-7.9 3.23-1.97 2.15-3.12 5.13-3.47 8.94h21.52c0-3.93-.88-6.94-2.63-9.03-1.75-2.09-4.26-3.14-7.51-3.14M493.55 153.3v3.94l-7.62.9c.7.88 1.33 2.02 1.88 3.44.55 1.41.83 3.01.83 4.79 0 4.03-1.38 7.25-4.13 9.65s-6.54 3.61-11.34 3.61c-1.23 0-2.38-.1-3.46-.3-2.65 1.4-3.98 3.17-3.98 5.29 0 1.13.46 1.96 1.39 2.5.93.54 2.52.81 4.77.81h7.29c4.46 0 7.88.94 10.27 2.82 2.39 1.88 3.59 4.61 3.59 8.19 0 4.56-1.83 8.03-5.48 10.42-3.66 2.39-8.99 3.59-16 3.59-5.38 0-9.53-1-12.45-3s-4.38-4.83-4.38-8.49c0-2.5.8-4.67 2.4-6.5 1.6-1.83 3.85-3.07 6.76-3.72-1.05-.47-1.93-1.21-2.65-2.22-.71-1-1.07-2.17-1.07-3.49 0-1.5.4-2.82 1.2-3.94.8-1.13 2.07-2.22 3.79-3.27-2.13-.88-3.86-2.37-5.2-4.47-1.34-2.1-2.01-4.51-2.01-7.21 0-4.51 1.35-7.98 4.05-10.42 2.71-2.44 6.54-3.66 11.49-3.66 2.15 0 4.09.25 5.82.75h14.23Zm-32.82 48.07c0 2.23.94 3.92 2.82 5.07 1.88 1.15 4.57 1.73 8.07 1.73 5.23 0 9.11-.78 11.62-2.35 2.52-1.56 3.77-3.69 3.77-6.36 0-2.23-.69-3.77-2.07-4.64-1.38-.86-3.97-1.29-7.77-1.29h-7.47c-2.83 0-5.03.68-6.61 2.03-1.58 1.35-2.37 3.29-2.37 5.82m3.39-34.9c0 2.88.81 5.06 2.44 6.53 1.63 1.48 3.89 2.22 6.8 2.22 6.08 0 9.12-2.95 9.12-8.86s-3.08-9.27-9.24-9.27c-2.93 0-5.18.79-6.76 2.37s-2.37 3.92-2.37 7.02M519.38 195.21c-6.08 0-10.88-1.85-14.4-5.56-3.52-3.71-5.28-8.85-5.28-15.43s1.63-11.9 4.9-15.81c3.27-3.91 7.65-5.86 13.16-5.86 5.16 0 9.24 1.7 12.24 5.09 3.01 3.39 4.51 7.87 4.51 13.42V175h-28.35c.12 4.83 1.35 8.5 3.66 11 2.32 2.5 5.58 3.75 9.78 3.75 4.43 0 8.81-.93 13.14-2.78v5.56c-2.2.95-4.29 1.63-6.25 2.05-1.97.41-4.34.62-7.12.62m-1.68-37.43c-3.31 0-5.94 1.08-7.9 3.23-1.97 2.15-3.12 5.13-3.47 8.94h21.52c0-3.93-.88-6.94-2.63-9.03-1.75-2.09-4.26-3.14-7.51-3.14M600.65 173.84c0 6.71-1.69 11.95-5.07 15.72s-8.05 5.65-14.01 5.65c-3.68 0-6.95-.86-9.8-2.59-2.85-1.73-5.06-4.21-6.61-7.43-1.55-3.23-2.33-7.01-2.33-11.34 0-6.71 1.68-11.94 5.03-15.68 3.35-3.74 8.01-5.61 13.97-5.61s10.33 1.92 13.73 5.75c3.39 3.83 5.09 9.01 5.09 15.55m-31.36-.02c0 5.26 1.05 9.26 3.15 12.02 2.1 2.75 5.2 4.13 9.28 4.13s7.18-1.37 9.29-4.11c2.11-2.74 3.17-6.75 3.17-12.04s-1.06-9.21-3.17-11.92c-2.12-2.72-5.24-4.07-9.37-4.07s-7.16 1.34-9.24 4.02c-2.08 2.68-3.12 6.67-3.12 11.98M630.13 158.15h-10.48v36.31h-6.23v-36.31h-7.36v-2.82l7.36-2.25v-2.29c0-10.11 4.42-15.17 13.26-15.17 2.18 0 4.73.44 7.66 1.32l-1.61 4.99c-2.4-.78-4.46-1.16-6.16-1.16-2.35 0-4.09.78-5.22 2.35s-1.69 4.07-1.69 7.53v2.67h10.48v4.84ZM693.06 194.46 686.23 177h-22.01l-6.76 17.46H651l21.71-55.13h5.37l21.59 55.13h-6.61Zm-8.82-23.21-6.38-17.01c-.83-2.15-1.68-4.79-2.55-7.92-.55 2.4-1.34 5.04-2.36 7.92l-6.46 17.01h17.76ZM725.06 152.55c1.83 0 3.47.15 4.92.45l-.86 5.78c-1.7-.38-3.21-.56-4.51-.56-3.33 0-6.18 1.35-8.54 4.06-2.37 2.7-3.55 6.07-3.55 10.1v22.08h-6.23V153.3h5.14l.71 7.62h.3c1.53-2.68 3.37-4.74 5.52-6.2 2.15-1.45 4.52-2.18 7.1-2.18M754.12 195.21c-5.96 0-10.57-1.83-13.84-5.5-3.27-3.67-4.9-8.86-4.9-15.57s1.66-12.2 4.98-15.96c3.32-3.75 8.04-5.63 14.18-5.63 1.98 0 3.96.21 5.93.64 1.98.43 3.53.93 4.66 1.5l-1.92 5.29c-1.38-.55-2.88-1.01-4.51-1.37-1.63-.36-3.07-.54-4.32-.54-8.36 0-12.54 5.33-12.54 16 0 5.06 1.02 8.94 3.06 11.64 2.04 2.7 5.06 4.06 9.07 4.06 3.43 0 6.95-.74 10.55-2.22v5.52c-2.76 1.43-6.22 2.14-10.4 2.14M802.45 194.46v-26.62c0-3.35-.76-5.86-2.29-7.51-1.53-1.65-3.92-2.48-7.17-2.48-4.33 0-7.49 1.18-9.48 3.53-1.99 2.35-2.99 6.21-2.99 11.57v21.52h-6.23v-58.43h6.23v17.69c0 2.13-.1 3.89-.3 5.29h.38c1.23-1.98 2.97-3.54 5.24-4.68 2.26-1.14 4.85-1.71 7.75-1.71 5.03 0 8.81 1.19 11.32 3.58 2.52 2.39 3.77 6.19 3.77 11.4v26.85h-6.23ZM820.97 142.15c0-1.43.35-2.47 1.05-3.13.7-.66 1.58-.99 2.63-.99s1.86.34 2.59 1.01c.73.68 1.09 1.71 1.09 3.12s-.36 2.45-1.09 3.14c-.73.69-1.59 1.03-2.59 1.03-1.05 0-1.93-.34-2.63-1.03s-1.05-1.73-1.05-3.14m6.76 52.3h-6.23V153.3h6.23v41.16ZM854.24 190.06c1.1 0 2.16-.08 3.19-.24 1.03-.16 1.84-.33 2.44-.51v4.77c-.68.33-1.67.59-2.99.81-1.31.21-2.5.32-3.55.32-7.96 0-11.94-4.19-11.94-12.58v-24.48h-5.9v-3l5.9-2.59 2.63-8.79h3.61v9.54h11.94v4.84h-11.94v24.22c0 2.48.59 4.38 1.76 5.71 1.18 1.33 2.79 1.99 4.85 1.99M885.48 195.21c-6.08 0-10.88-1.85-14.4-5.56-3.52-3.71-5.28-8.85-5.28-15.43s1.63-11.9 4.9-15.81c3.27-3.91 7.65-5.86 13.16-5.86 5.16 0 9.24 1.7 12.24 5.09 3 3.39 4.51 7.87 4.51 13.42V175h-28.35c.12 4.83 1.34 8.5 3.66 11 2.32 2.5 5.58 3.75 9.78 3.75 4.43 0 8.81-.93 13.14-2.78v5.56c-2.2.95-4.29 1.63-6.25 2.05-1.97.41-4.34.62-7.12.62m-1.68-37.43c-3.31 0-5.94 1.08-7.91 3.23-1.97 2.15-3.12 5.13-3.47 8.94h21.52c0-3.93-.88-6.94-2.63-9.03-1.75-2.09-4.26-3.14-7.51-3.14M927.69 195.21c-5.96 0-10.57-1.83-13.84-5.5-3.27-3.67-4.9-8.86-4.9-15.57s1.66-12.2 4.98-15.96c3.32-3.75 8.04-5.63 14.18-5.63 1.98 0 3.96.21 5.93.64 1.98.43 3.53.93 4.66 1.5l-1.92 5.29c-1.38-.55-2.88-1.01-4.51-1.37-1.63-.36-3.07-.54-4.32-.54-8.36 0-12.54 5.33-12.54 16 0 5.06 1.02 8.94 3.06 11.64 2.04 2.7 5.06 4.06 9.07 4.06 3.43 0 6.95-.74 10.55-2.22v5.52c-2.75 1.43-6.22 2.14-10.4 2.14M961.15 190.06c1.1 0 2.16-.08 3.19-.24 1.03-.16 1.84-.33 2.44-.51v4.77c-.68.33-1.67.59-2.99.81-1.31.21-2.5.32-3.55.32-7.96 0-11.94-4.19-11.94-12.58v-24.48h-5.9v-3l5.9-2.59 2.63-8.79h3.61v9.54h11.94v4.84h-11.94v24.22c0 2.48.59 4.38 1.76 5.71 1.18 1.33 2.79 1.99 4.85 1.99M980.87 153.3V180c0 3.35.76 5.86 2.29 7.51 1.53 1.65 3.92 2.48 7.17 2.48 4.31 0 7.45-1.18 9.44-3.53 1.99-2.35 2.99-6.2 2.99-11.53V153.3h6.23v41.16h-5.14l-.9-5.52h-.34c-1.28 2.03-3.05 3.58-5.31 4.66-2.27 1.08-4.85 1.62-7.76 1.62-5.01 0-8.76-1.19-11.25-3.57s-3.74-6.18-3.74-11.42V153.3h6.31ZM1040.99 152.55c1.83 0 3.47.15 4.92.45l-.86 5.78c-1.7-.38-3.2-.56-4.51-.56-3.33 0-6.18 1.35-8.54 4.06-2.37 2.7-3.55 6.07-3.55 10.1v22.08h-6.23V153.3h5.14l.71 7.62h.3c1.53-2.68 3.37-4.74 5.52-6.2 2.15-1.45 4.52-2.18 7.1-2.18M1070.99 195.21c-6.08 0-10.88-1.85-14.4-5.56-3.52-3.71-5.28-8.85-5.28-15.43s1.63-11.9 4.9-15.81c3.27-3.91 7.65-5.86 13.16-5.86 5.16 0 9.24 1.7 12.24 5.09 3 3.39 4.51 7.87 4.51 13.42V175h-28.35c.12 4.83 1.34 8.5 3.66 11 2.32 2.5 5.58 3.75 9.78 3.75 4.43 0 8.81-.93 13.14-2.78v5.56c-2.2.95-4.29 1.63-6.25 2.05-1.97.41-4.34.62-7.12.62m-1.68-37.43c-3.31 0-5.94 1.08-7.91 3.23-1.97 2.15-3.12 5.13-3.47 8.94h21.52c0-3.93-.88-6.94-2.63-9.03-1.75-2.09-4.26-3.14-7.51-3.14" class="cls-3"/>
    </g>
  </g>
</svg>
