<?xml version="1.0" encoding="UTF-8"?>
<svg id="Layer_1"
     xmlns="http://www.w3.org/2000/svg"
     xmlns:xlink="http://www.w3.org/1999/xlink"
     version="1.1"
     viewBox="0 0 2041.1 350"
     preserveAspectRatio="xMidYMid meet">
  <!-- Generator: Adobe Illustrator 29.7.1, SVG Export Plug-In . SVG Version: 2.1.1 Build 8)  -->
  
  <defs>
    <style>
      .st0 { fill: none; }
      .st1 { fill: #500000; }
      .st2 { fill: #fff; }
      .st3 { fill: #b3b4b6; }
      .st4 { clip-path: url(#clippath); }
    </style>

    <clipPath id="clippath">
      <!-- 裁剪区域与 viewBox 等大 -->
      <rect class="st0" x="0" y="1.01" width="2041.1" height="350"/>
    </clipPath>
  </defs>

  <g id="Layer_11">
    <path class="st1" d="M61.11,62.11h209.54v211.21H61.11V62.11Z"/>
    <path class="st2" d="M242.82,146.16h-16.45l-.4.81-11.29,23.51-11.31-23.51-.39-.81h-17.37v10.87h4v33.65h-4.23v10.87h19.76v-10.87h-4.34v-23.88l12.6,26.02,1.29,2.65,1.3-2.65,12.74-26.08v23.94h-4.23v10.87h19.76v-10.87h-4.34v-33.65h4.34v-10.87h-1.46.02ZM144.76,190.65h-4.48l-14.62-33.8h2.84v-10.88h-23.51v10.88h3.23l-14.61,33.8h-6.08v10.88h21.3v-10.88h-3.1l2.44-5.62h17.58l2.43,5.62h-3.27v10.88h21.31v-10.88h-1.46.01ZM121.01,174.14h-8.17l4.08-9.45,4.08,9.45h.01-.01Z"/>
    <path class="st2" d="M224.95,103.93h-120.17v34.95h23.75v-13.4h25.29v83.44h-13.4v23.75h50.54v-23.75h-13.39v-83.44h25.13v13.26h23.89v-34.79h-1.66.01Z"/>
    <path class="st3" d="M181.09,218.65l5-5.16v14.14l-5-4.79v-4.19h0ZM172.73,213.87l-5.01,4.93v-103.16l5.01,5v93.25h0ZM114.82,113.82l-5.15-5.01h109.54l-6.48,5.01h-97.91ZM221.87,134.14l-5.01-4.79v-12.73l5.01-5.15v22.67Z"/>
    
    <g class="st4">
      <!-- 其余路径保持原样 -->
      <!-- …… -->
    </g>
  </g>
</svg>
