<?xml version="1.0" encoding="UTF-8"?>
<svg id="Layer_1" xmlns="http://www.w3.org/2000/svg" xmlns:xlink="http://www.w3.org/1999/xlink" version="1.1" viewBox="0 0 1186.78 302.35">
  <!-- Generator: Adobe Illustrator 29.7.1, SVG Export Plug-In . SVG Version: 2.1.1 Build 8)  -->
  <defs>
    <style>
      .st0 {
        fill: none;
      }

      .st1 {
        fill: #500000;
      }

      .st2 {
        fill: #fff;
      }

      .st3 {
        fill: #b3b4b6;
      }

      .st4 {
        clip-path: url(#clippath);
      }
    </style>
    <clipPath id="clippath">
      <rect class="st0" x="-54.99" y="-2.99" width="1278.4" height="325.69"/>
    </clipPath>
  </defs>
  <g id="Layer_11">
    <path class="st1" d="M4.7,56.7h204.7v206.33H4.7V56.7Z"/>
    <path class="st2" d="M182.21,138.81h-16.07l-.39.79-11.03,22.97-11.05-22.97-.38-.79h-16.97v10.62h3.91v32.87h-4.13v10.62h19.3v-10.62h-4.24v-23.33l12.31,25.42,1.26,2.59,1.27-2.59,12.45-25.48v23.39h-4.13v10.62h19.3v-10.62h-4.24v-32.87h4.24v-10.62h-1.43ZM86.41,182.27h-4.38l-14.28-33.02h2.77v-10.63h-22.97v10.63h3.16l-14.27,33.02h-5.94v10.63h20.81v-10.63h-3.03l2.38-5.49h17.17l2.37,5.49h-3.19v10.63h20.82v-10.63h-1.43.01ZM63.21,166.14h-7.98l3.99-9.23,3.99,9.23h.01Z"/>
    <path class="st2" d="M164.75,97.55H47.36v34.14h23.2v-13.09h24.71v81.51h-13.09v23.2h49.37v-23.2h-13.08v-81.51h24.55v12.95h23.34v-33.99h-1.62Z"/>
    <path class="st3" d="M121.9,209.62l4.88-5.04v13.81l-4.88-4.68v-4.09h0ZM113.74,204.95l-4.89,4.82v-100.78l4.89,4.88v91.09ZM57.17,107.21l-5.03-4.89h107.01l-6.33,4.89H57.17ZM161.74,127.06l-4.89-4.68v-12.44l4.89-5.03v22.15Z"/>
    <g class="st4">
      <g>
        <path class="st1" d="M216.68,258.92c0-2.26,1.84-4.1,4.1-4.1s4.1,1.84,4.1,4.1-1.84,4.1-4.1,4.1-4.1-1.84-4.1-4.1M223.89,258.92c0-1.92-1.38-3.31-3.1-3.31s-3.1,1.38-3.1,3.31,1.38,3.31,3.1,3.31,3.1-1.38,3.1-3.31M219.2,256.59h1.72c1.11,0,1.71.39,1.71,1.36,0,.8-.45,1.17-1.22,1.25l1.25,2.04h-.89l-1.2-2h-.53v2h-.87v-4.64h.02ZM220.08,258.57h.76c.52,0,.96-.06.96-.7,0-.55-.51-.64-.94-.64h-.78v1.32h-.01Z"/>
        <path class="st2" d="M280.6,116.41h-5.14v-26.96h-9.23v-4.41h23.58v4.41h-9.22v26.96h.01ZM314.56,116.41h-17.73v-31.37h17.73v4.33h-12.61v8.54h11.83v4.29h-11.83v9.86h12.61v4.34h0ZM346.65,116.41h-5.9l-7.84-12.83-7.93,12.83h-5.49l10.41-16.25-9.74-15.1h5.71l7.25,11.87,7.26-11.87h5.53l-9.8,15.19,10.56,16.18h0ZM372.53,116.41l-3.13-8.71h-12l-3.06,8.71h-5.41l11.73-31.49h5.58l11.74,31.49h-5.45ZM368.04,103.29l-2.94-8.54c-.22-.57-.52-1.48-.89-2.7-.38-1.24-.64-2.12-.78-2.7-.39,1.76-.95,3.68-1.69,5.76l-2.83,8.18h9.13ZM402.41,107.9c0,2.79-1,4.98-3.03,6.56-2.01,1.59-4.8,2.38-8.35,2.38s-6.45-.55-8.71-1.66v-4.85c1.43.68,2.95,1.2,4.57,1.59s3.11.58,4.49.58c2.04,0,3.52-.39,4.49-1.15.97-.78,1.45-1.81,1.45-3.11,0-1.16-.44-2.18-1.32-2.98-.89-.81-2.73-1.79-5.49-2.9-2.85-1.15-4.87-2.48-6.05-3.96-1.16-1.49-1.76-3.29-1.76-5.36,0-2.62.93-4.68,2.79-6.17s4.35-2.25,7.49-2.25,5.99.66,8.96,1.98l-1.63,4.19c-2.79-1.16-5.28-1.76-7.47-1.76-1.66,0-2.92.36-3.77,1.09-.86.72-1.28,1.67-1.28,2.87,0,.81.17,1.51.52,2.09s.9,1.13,1.69,1.65c.79.52,2.2,1.18,4.24,2.04,2.29.96,3.99,1.85,5.06,2.68,1.08.82,1.86,1.76,2.37,2.81.51,1.04.75,2.27.75,3.69M443.75,116.41l-3.13-8.71h-12l-3.06,8.71h-5.41l11.73-31.49h5.58l11.74,31.49h-5.45ZM439.26,103.29l-2.94-8.54c-.22-.57-.52-1.48-.89-2.7-.38-1.24-.64-2.12-.78-2.7-.39,1.76-.95,3.68-1.69,5.76l-2.83,8.18h9.13ZM453.44,108.11c0-1.87.45-3.51,1.37-4.9.92-1.4,2.56-2.78,4.96-4.15-1.36-1.59-2.28-2.93-2.78-4.03s-.74-2.23-.74-3.39c0-2.18.78-3.89,2.34-5.15,1.55-1.26,3.64-1.89,6.26-1.89s4.52.6,5.97,1.83,2.17,2.87,2.17,4.96c0,1.64-.48,3.11-1.45,4.44-.96,1.32-2.57,2.66-4.84,3.99l7.42,7.17c1.15-1.53,2.12-3.77,2.91-6.73h5.19c-.99,4.06-2.61,7.38-4.8,9.93l6.46,6.25h-6.5l-3.2-3.11c-1.46,1.17-3.02,2.06-4.66,2.65-1.66.59-3.48.89-5.47.89-3.3,0-5.88-.78-7.75-2.35s-2.81-3.69-2.81-6.39M464.27,112.51c2.62,0,4.85-.76,6.71-2.29l-8.21-8.08c-1.52.97-2.56,1.89-3.13,2.75-.57.85-.86,1.82-.86,2.91,0,1.4.5,2.54,1.49,3.41s2.34,1.31,4.01,1.31M461.06,91.81c0,.9.24,1.75.72,2.55.48.8,1.15,1.66,2.01,2.55,1.62-.92,2.75-1.78,3.39-2.56.66-.79.97-1.68.97-2.67,0-.93-.31-1.67-.94-2.23-.61-.56-1.45-.83-2.48-.83-1.13,0-2.03.3-2.68.87-.68.58-1,1.35-1,2.34M503.81,116.41l-9.1-26.2h-.17c.24,3.89.37,7.54.37,10.94v15.25h-4.65v-31.37h7.23l8.71,24.95h.13l8.96-24.95h7.25v31.37h-4.94v-15.5c0-1.55.04-3.59.12-6.1.08-2.5.15-4.02.2-4.55h-.17l-9.43,26.15h-4.52.02ZM571.2,85.05v20.29c0,2.32-.5,4.34-1.49,6.09s-2.43,3.08-4.31,4.02c-1.89.94-4.13,1.41-6.74,1.41-3.89,0-6.92-1.03-9.08-3.09s-3.23-4.89-3.23-8.5v-20.21h5.15v19.84c0,2.59.59,4.5,1.81,5.73,1.2,1.23,3.04,1.84,5.54,1.84,4.84,0,7.25-2.54,7.25-7.62v-19.81h5.13-.02ZM607.56,116.41h-6.29l-15.43-24.99h-.17l.11,1.4c.2,2.66.3,5.08.3,7.29v16.31h-4.65v-31.37h6.22l15.38,24.87h.13c-.02-.33-.08-1.53-.17-3.59-.08-2.07-.13-3.68-.13-4.84v-16.43h4.7v31.37h.01v-.03ZM618.04,85.05h5.13v31.37h-5.13v-31.37ZM651.52,85.05h5.32l-10.99,31.37h-5.41l-10.94-31.37h5.28l6.54,19.5c.34.93.71,2.12,1.1,3.59s.64,2.56.75,3.27c.18-1.09.47-2.35.86-3.77s.7-2.49.94-3.18l6.54-19.41h.01,0ZM680.91,116.41h-17.74v-31.37h17.74v4.33h-12.62v8.54h11.83v4.29h-11.83v9.86h12.62v4.34h0ZM695.01,103.88v12.53h-5.13v-31.37h8.87c4.05,0,7.04.75,8.98,2.27,1.94,1.51,2.92,3.8,2.92,6.86,0,3.91-2.04,6.69-6.1,8.35l8.87,13.89h-5.83l-7.51-12.53h-5.07ZM695.01,99.64h3.55c2.39,0,4.11-.44,5.19-1.32,1.08-.89,1.62-2.21,1.62-3.94s-.58-3.05-1.73-3.82-2.91-1.15-5.24-1.15h-3.38v10.25h-.01ZM738.26,107.9c0,2.79-1,4.98-3.03,6.56-2.01,1.59-4.8,2.38-8.35,2.38s-6.45-.55-8.71-1.66v-4.85c1.43.68,2.95,1.2,4.57,1.59s3.11.58,4.49.58c2.04,0,3.52-.39,4.49-1.15.97-.78,1.45-1.81,1.45-3.11,0-1.16-.44-2.18-1.32-2.98-.89-.81-2.73-1.79-5.49-2.9-2.85-1.15-4.88-2.48-6.05-3.96-1.16-1.49-1.76-3.29-1.76-5.36,0-2.62.93-4.68,2.79-6.17,1.86-1.5,4.35-2.25,7.49-2.25s5.99.66,8.96,1.98l-1.63,4.19c-2.79-1.16-5.28-1.76-7.47-1.76-1.66,0-2.92.36-3.77,1.09-.86.72-1.28,1.67-1.28,2.87,0,.81.17,1.51.52,2.09s.9,1.13,1.69,1.65c.79.52,2.2,1.18,4.24,2.04,2.29.96,3.99,1.85,5.06,2.68,1.08.82,1.86,1.76,2.37,2.81.51,1.04.75,2.27.75,3.69M746.53,85.05h5.13v31.37h-5.13v-31.37ZM772.97,116.41h-5.13v-26.96h-9.23v-4.41h23.58v4.41h-9.23v26.96h.01ZM798.05,99.37l7.43-14.32h5.57l-10.44,19.21v12.15h-5.16v-11.98l-10.41-19.38h5.58l7.42,14.32h0ZM296.38,162.22c-6.89,0-12.34,2.29-16.34,6.89-3.99,4.6-5.99,10.89-5.99,18.87s1.92,14.56,5.77,19.03c3.86,4.48,9.34,6.72,16.47,6.72,4.38,0,9.37-.79,14.99-2.37v6.4c-4.34,1.64-9.72,2.45-16.1,2.45-9.25,0-16.38-2.8-21.4-8.41-5.02-5.61-7.54-13.58-7.54-23.92,0-6.47,1.22-12.13,3.63-17s5.91-8.62,10.47-11.26,9.93-3.95,16.13-3.95c6.58,0,12.33,1.2,17.27,3.6l-3.09,6.27c-4.76-2.23-9.5-3.35-14.26-3.35M364.53,195.79c0,7.67-1.93,13.67-5.8,17.98-3.87,4.31-9.21,6.46-16.02,6.46-4.21,0-7.95-.98-11.2-2.96-3.26-1.98-5.78-4.82-7.56-8.5-1.78-3.69-2.66-8.01-2.66-12.97,0-7.67,1.92-13.65,5.75-17.92,3.83-4.28,9.16-6.42,15.97-6.42s11.82,2.2,15.69,6.57c3.88,4.38,5.82,10.3,5.82,17.78M328.68,195.79c0,6.01,1.2,10.59,3.6,13.75,2.4,3.15,5.95,4.72,10.61,4.72s8.21-1.56,10.62-4.7,3.63-7.72,3.63-13.77-1.22-10.54-3.63-13.63c-2.42-3.11-5.99-4.65-10.72-4.65s-8.19,1.53-10.57,4.6c-2.38,3.06-3.57,7.63-3.57,13.7M377.02,152.56h7.12v66.81h-7.12v-66.81ZM399.27,152.56h7.12v66.81h-7.12v-66.81ZM441.4,220.23c-6.95,0-12.44-2.11-16.47-6.36-4.03-4.24-6.03-10.11-6.03-17.64s1.86-13.61,5.6-18.08c3.74-4.47,8.75-6.7,15.05-6.7,5.9,0,10.57,1.94,13.99,5.82,3.45,3.88,5.16,8.99,5.16,15.35v4.5h-32.41c.14,5.53,1.54,9.72,4.19,12.58,2.65,2.85,6.38,4.29,11.18,4.29,5.06,0,10.07-1.07,15.03-3.18v6.36c-2.52,1.09-4.9,1.86-7.14,2.35-2.25.47-4.97.71-8.14.71M439.46,177.42c-3.78,0-6.8,1.24-9.04,3.69-2.25,2.46-3.57,5.87-3.96,10.22h24.6c0-4.49-1-7.94-3.01-10.33s-4.87-3.59-8.59-3.59M509.37,172.3v4.5l-8.71,1.03c.8,1,1.52,2.31,2.15,3.93.62,1.62.95,3.45.95,5.47,0,4.61-1.57,8.29-4.72,11.03s-7.48,4.13-12.97,4.13c-1.41,0-2.73-.12-3.95-.34-3.03,1.61-4.55,3.63-4.55,6.05,0,1.29.53,2.24,1.59,2.85,1.07.61,2.89.93,5.45.93h8.34c5.1,0,9.01,1.08,11.74,3.22,2.74,2.15,4.1,5.27,4.1,9.36,0,5.21-2.09,9.18-6.27,11.91-4.19,2.74-10.28,4.1-18.29,4.1-6.15,0-10.9-1.14-14.24-3.43s-5.01-5.53-5.01-9.71c0-2.85.92-5.34,2.75-7.43s4.41-3.51,7.73-4.25c-1.2-.54-2.21-1.38-3.03-2.54-.81-1.14-1.23-2.48-1.23-3.99,0-1.71.45-3.22,1.37-4.5.92-1.29,2.37-2.54,4.33-3.74-2.43-1-4.42-2.71-5.95-5.11-1.53-2.4-2.29-5.16-2.29-8.24,0-5.16,1.54-9.12,4.63-11.91,3.1-2.79,7.48-4.19,13.14-4.19,2.46,0,4.68.29,6.66.86h16.29-.02ZM471.84,227.27c0,2.55,1.08,4.48,3.22,5.8,2.15,1.31,5.22,1.98,9.23,1.98,5.98,0,10.42-.89,13.28-2.68,2.89-1.79,4.31-4.22,4.31-7.27,0-2.55-.79-4.31-2.37-5.31-1.57-.98-4.54-1.48-8.89-1.48h-8.54c-3.23,0-5.75.78-7.56,2.32s-2.71,3.76-2.71,6.66M475.71,187.37c0,3.3.93,5.78,2.79,7.47,1.86,1.69,4.45,2.54,7.78,2.54,6.95,0,10.43-3.37,10.43-10.14s-3.52-10.6-10.57-10.6c-3.35,0-5.92.9-7.73,2.71s-2.71,4.48-2.71,8.03M538.91,220.23c-6.95,0-12.44-2.11-16.47-6.36-4.03-4.24-6.03-10.11-6.03-17.64s1.86-13.61,5.6-18.08,8.75-6.7,15.05-6.7c5.9,0,10.57,1.94,13.99,5.82,3.45,3.88,5.16,8.99,5.16,15.35v4.5h-32.41c.14,5.53,1.54,9.72,4.19,12.58,2.65,2.85,6.38,4.29,11.18,4.29,5.06,0,10.07-1.07,15.03-3.18v6.36c-2.52,1.09-4.9,1.86-7.14,2.35-2.25.47-4.97.71-8.14.71M536.98,177.42c-3.78,0-6.8,1.24-9.04,3.69-2.25,2.46-3.57,5.87-3.96,10.22h24.6c0-4.49-1-7.94-3.01-10.33s-4.87-3.59-8.59-3.59M631.84,195.79c0,7.67-1.93,13.67-5.8,17.98-3.87,4.31-9.21,6.46-16.02,6.46-4.21,0-7.95-.98-11.2-2.96s-5.78-4.82-7.56-8.5c-1.78-3.69-2.66-8.01-2.66-12.97,0-7.67,1.92-13.65,5.75-17.92,3.83-4.28,9.16-6.42,15.97-6.42s11.82,2.2,15.69,6.57c3.88,4.38,5.82,10.3,5.82,17.78M595.98,195.79c0,6.01,1.2,10.59,3.6,13.75,2.4,3.15,5.95,4.72,10.61,4.72s8.21-1.56,10.62-4.7,3.63-7.72,3.63-13.77-1.22-10.54-3.63-13.63c-2.42-3.11-5.99-4.65-10.72-4.65s-8.19,1.53-10.57,4.6c-2.38,3.06-3.57,7.63-3.57,13.7M665.55,177.85h-11.98v41.52h-7.12v-41.52h-8.41v-3.22l8.41-2.57v-2.62c0-11.56,5.05-17.34,15.17-17.34,2.49,0,5.41.51,8.76,1.51l-1.84,5.71c-2.75-.89-5.1-1.32-7.04-1.32-2.68,0-4.68.89-5.97,2.68s-1.93,4.65-1.93,8.61v3.05h11.98v5.54h-.02ZM737.51,219.37l-7.81-19.96h-25.16l-7.73,19.96h-7.39l24.83-63.04h6.14l24.69,63.04h-7.56ZM727.42,192.84l-7.29-19.45c-.95-2.46-1.92-5.47-2.92-9.06-.62,2.75-1.53,5.76-2.7,9.06l-7.39,19.45h20.31-.01.01ZM774.1,171.44c2.09,0,3.96.17,5.62.52l-.98,6.61c-1.94-.43-3.67-.64-5.16-.64-3.8,0-7.07,1.54-9.77,4.64-2.71,3.09-4.06,6.94-4.06,11.55v25.25h-7.12v-47.06h5.88l.81,8.71h.34c1.75-3.06,3.86-5.42,6.31-7.09,2.46-1.66,5.17-2.49,8.12-2.49M807.32,220.23c-6.82,0-12.09-2.09-15.82-6.29s-5.6-10.14-5.6-17.81,1.9-13.95,5.7-18.25c3.79-4.29,9.19-6.44,16.21-6.44,2.26,0,4.52.24,6.78.73,2.26.5,4.04,1.07,5.33,1.71l-2.2,6.05c-1.57-.62-3.3-1.15-5.16-1.56s-3.51-.61-4.94-.61c-9.55,0-14.34,6.1-14.34,18.29,0,5.78,1.16,10.22,3.5,13.31s5.78,4.64,10.37,4.64c3.92,0,7.95-.85,12.06-2.54v6.31c-3.16,1.64-7.11,2.45-11.89,2.45M862.59,219.37v-30.44c0-3.83-.87-6.7-2.62-8.59s-4.48-2.83-8.2-2.83c-4.96,0-8.56,1.35-10.84,4.04-2.27,2.69-3.41,7.1-3.41,13.23v24.6h-7.12v-66.81h7.12v20.23c0,2.43-.12,4.45-.34,6.05h.43c1.41-2.26,3.39-4.05,5.99-5.35,2.59-1.3,5.55-1.96,8.87-1.96,5.75,0,10.07,1.36,12.95,4.09,2.89,2.74,4.31,7.08,4.31,13.03v30.7h-7.13ZM883.77,159.56c0-1.64.4-2.82,1.2-3.58s1.81-1.13,3.01-1.13,2.12.39,2.96,1.15c.83.78,1.25,1.96,1.25,3.57s-.41,2.8-1.25,3.59c-.83.79-1.82,1.17-2.96,1.17s-2.21-.39-3.01-1.17-1.2-1.98-1.2-3.59M891.5,219.37h-7.12v-47.06h7.12v47.06h0ZM921.81,214.34c1.26,0,2.47-.09,3.65-.27s2.1-.38,2.79-.58v5.45c-.78.38-1.91.68-3.41.93-1.5.24-2.85.37-4.06.37-9.1,0-13.65-4.79-13.65-14.38v-28h-6.74v-3.43l6.74-2.96,3.01-10.05h4.13v10.91h13.65v5.54h-13.65v27.69c0,2.83.68,5.01,2.01,6.53,1.35,1.52,3.19,2.27,5.55,2.27M957.54,220.23c-6.95,0-12.44-2.11-16.47-6.36-4.03-4.24-6.03-10.11-6.03-17.64s1.86-13.61,5.6-18.08c3.74-4.47,8.75-6.7,15.05-6.7,5.9,0,10.57,1.94,13.99,5.82,3.43,3.88,5.16,8.99,5.16,15.35v4.5h-32.41c.14,5.53,1.53,9.72,4.19,12.58,2.65,2.85,6.38,4.29,11.18,4.29,5.06,0,10.07-1.07,15.03-3.18v6.36c-2.52,1.09-4.9,1.86-7.14,2.35-2.25.47-4.97.71-8.14.71M955.6,177.42c-3.78,0-6.8,1.24-9.05,3.69s-3.57,5.87-3.96,10.22h24.6c0-4.49-1-7.94-3.01-10.33s-4.87-3.59-8.59-3.59M1005.8,220.23c-6.82,0-12.09-2.09-15.82-6.29-3.74-4.2-5.6-10.14-5.6-17.81s1.9-13.95,5.7-18.25c3.79-4.29,9.19-6.44,16.21-6.44,2.26,0,4.52.24,6.78.73,2.26.5,4.04,1.07,5.33,1.71l-2.2,6.05c-1.57-.62-3.3-1.15-5.16-1.56s-3.51-.61-4.94-.61c-9.55,0-14.34,6.1-14.34,18.29,0,5.78,1.16,10.22,3.5,13.31s5.78,4.64,10.37,4.64c3.92,0,7.95-.85,12.06-2.54v6.31c-3.15,1.64-7.11,2.45-11.89,2.45M1044.06,214.34c1.26,0,2.47-.09,3.65-.27,1.18-.18,2.1-.38,2.79-.58v5.45c-.78.38-1.91.68-3.41.93-1.5.24-2.85.37-4.06.37-9.1,0-13.65-4.79-13.65-14.38v-28h-6.74v-3.43l6.74-2.96,3.01-10.05h4.13v10.91h13.65v5.54h-13.65v27.69c0,2.83.68,5.01,2.01,6.53,1.35,1.52,3.19,2.27,5.55,2.27M1066.61,172.3v30.53c0,3.83.87,6.7,2.62,8.59s4.48,2.83,8.2,2.83c4.93,0,8.52-1.35,10.79-4.04s3.41-7.09,3.41-13.18v-24.73h7.12v47.06h-5.88l-1.03-6.31h-.39c-1.46,2.32-3.49,4.09-6.08,5.33-2.6,1.24-5.55,1.85-8.88,1.85-5.73,0-10.02-1.36-12.86-4.08-2.84-2.73-4.28-7.07-4.28-13.06v-30.8h7.25ZM1135.35,171.44c2.09,0,3.96.17,5.62.52l-.98,6.61c-1.94-.43-3.66-.64-5.16-.64-3.8,0-7.07,1.54-9.77,4.64-2.71,3.09-4.06,6.94-4.06,11.55v25.25h-7.12v-47.06h5.88l.81,8.71h.34c1.75-3.06,3.86-5.42,6.31-7.09,2.46-1.66,5.17-2.49,8.12-2.49M1169.66,220.23c-6.95,0-12.44-2.11-16.47-6.36-4.03-4.24-6.03-10.11-6.03-17.64s1.86-13.61,5.6-18.08,8.75-6.7,15.05-6.7c5.9,0,10.57,1.94,13.99,5.82,3.43,3.88,5.16,8.99,5.16,15.35v4.5h-32.41c.14,5.53,1.53,9.72,4.19,12.58,2.65,2.85,6.38,4.29,11.18,4.29,5.06,0,10.07-1.07,15.03-3.18v6.36c-2.52,1.09-4.9,1.86-7.14,2.35-2.25.47-4.97.71-8.14.71M1167.72,177.42c-3.78,0-6.8,1.24-9.05,3.69s-3.57,5.87-3.96,10.22h24.6c0-4.49-1-7.94-3.01-10.33-2-2.39-4.87-3.59-8.59-3.59"/>
      </g>
    </g>
  </g>
</svg>