<?xml version="1.0" encoding="UTF-8"?>
<svg id="Layer_1" xmlns="http://www.w3.org/2000/svg" xmlns:xlink="http://www.w3.org/1999/xlink" version="1.1" viewBox="0 0 2041.1 350">
  <!-- Generator: Adobe Illustrator 29.7.1, SVG Export Plug-In . SVG Version: 2.1.1 Build 8)  -->   
  <defs>
    <style>
      .st0 {
        fill: none;
      }

      .st1 {
        fill: #500000;
      }

      .st2 {
        fill: #fff;
      }

      .st3 {
        fill: #b3b4b6;
      }

      .st4 {
        clip-path: url(#clippath);
      }
    </style>
    <clipPath id="clippath">
      <rect class="st0" x="0" y="1.01" width="2041.1" height="350"/>
    </clipPath>
  </defs>
  <g id="Layer_11">
    <path class="st1" d="M61.11,62.11h209.54v211.21H61.11V62.11Z"/>
    <path class="st2" d="M242.82,146.16h-16.45l-.4.81-11.29,23.51-11.31-23.51-.39-.81h-17.37v10.87h4v33.65h-4.23v10.87h19.76v-10.87h-4.34v-23.88l12.6,26.02,1.29,2.65,1.3-2.65,12.74-26.08v23.94h-4.23v10.87h19.76v-10.87h-4.34v-33.65h4.34v-10.87h-1.46.02ZM144.76,190.65h-4.48l-14.62-33.8h2.84v-10.88h-23.51v10.88h3.23l-14.61,33.8h-6.08v10.88h21.3v-10.88h-3.1l2.44-5.62h17.58l2.43,5.62h-3.27v10.88h21.31v-10.88h-1.46.01ZM121.01,174.14h-8.17l4.08-9.45,4.08,9.45h.01-.01Z"/>
    <path class="st2" d="M224.95,103.93h-120.17v34.95h23.75v-13.4h25.29v83.44h-13.4v23.75h50.54v-23.75h-13.39v-83.44h25.13v13.26h23.89v-34.79h-1.66.01Z"/>
    <path class="st3" d="M181.09,218.65l5-5.16v14.14l-5-4.79v-4.19h0ZM172.73,213.87l-5.01,4.93v-103.16l5.01,5v93.25h0ZM114.82,113.82l-5.15-5.01h109.54l-6.48,5.01h-97.91ZM221.87,134.14l-5.01-4.79v-12.73l5.01-5.15v22.67Z"/>
    <g class="st4">
      <g>
        <path class="st1" d="M278.11,269.12c0-2.31,1.88-4.2,4.2-4.2s4.2,1.88,4.2,4.2-1.88,4.2-4.2,4.2-4.2-1.88-4.2-4.2M285.49,269.12c0-1.97-1.41-3.39-3.17-3.39s-3.17,1.41-3.17,3.39,1.41,3.39,3.17,3.39,3.17-1.41,3.17-3.39M280.69,266.73h1.76c1.14,0,1.75.4,1.75,1.39,0,.82-.46,1.2-1.25,1.28l1.28,2.09h-.91l-1.23-2.05h-.54v2.05h-.89v-4.75h.03ZM281.59,268.76h.78c.53,0,.98-.06.98-.72,0-.56-.52-.66-.96-.66h-.8v1.35h-.01v.02Z"/>
        <path class="st2" d="M343.54,123.23h-5.26v-27.6h-9.45v-4.51h24.14v4.51h-9.44v27.6h.01ZM378.3,123.23h-18.15v-32.11h18.15v4.43h-12.91v8.74h12.11v4.39h-12.11v10.09h12.91v4.44h0ZM411.15,123.23h-6.04l-8.03-13.13-8.12,13.13h-5.62l10.66-16.63-9.97-15.46h5.85l7.42,12.15,7.43-12.15h5.66l-10.03,15.55,10.81,16.56h0l-.02-.02ZM437.64,123.23l-3.2-8.92h-12.28l-3.13,8.92h-5.54l12.01-32.24h5.71l12.02,32.24h-5.58,0ZM433.05,109.8l-3.01-8.74c-.23-.58-.53-1.52-.91-2.76-.39-1.27-.66-2.17-.8-2.76-.4,1.8-.97,3.77-1.73,5.9l-2.9,8.37s9.35,0,9.35,0ZM468.23,114.52c0,2.86-1.02,5.1-3.1,6.72-2.06,1.63-4.91,2.44-8.55,2.44s-6.6-.56-8.92-1.7v-4.96c1.46.7,3.02,1.23,4.68,1.63s3.18.59,4.6.59c2.09,0,3.6-.4,4.6-1.18.99-.8,1.48-1.85,1.48-3.18,0-1.19-.45-2.23-1.35-3.05-.91-.83-2.79-1.83-5.62-2.97-2.92-1.18-4.99-2.54-6.19-4.05-1.19-1.53-1.8-3.37-1.8-5.49,0-2.68.95-4.79,2.86-6.32s4.45-2.3,7.67-2.3,6.13.68,9.17,2.03l-1.67,4.29c-2.86-1.19-5.4-1.8-7.65-1.8-1.7,0-2.99.37-3.86,1.12-.88.74-1.31,1.71-1.31,2.94,0,.83.17,1.55.53,2.14s.92,1.16,1.73,1.69c.81.53,2.25,1.21,4.34,2.09,2.34.98,4.08,1.89,5.18,2.74,1.11.84,1.9,1.8,2.43,2.88.52,1.06.77,2.32.77,3.78M510.55,123.23l-3.2-8.92h-12.28l-3.13,8.92h-5.54l12.01-32.24h5.71l12.02,32.24h-5.58,0ZM505.95,109.8l-3.01-8.74c-.23-.58-.53-1.52-.91-2.76-.39-1.27-.66-2.17-.8-2.76-.4,1.8-.97,3.77-1.73,5.9l-2.9,8.37s9.35,0,9.35,0ZM520.47,114.74c0-1.91.46-3.59,1.4-5.02.94-1.43,2.62-2.85,5.08-4.25-1.39-1.63-2.33-3-2.85-4.13s-.76-2.28-.76-3.47c0-2.23.8-3.98,2.4-5.27,1.59-1.29,3.73-1.93,6.41-1.93s4.63.61,6.11,1.87,2.22,2.94,2.22,5.08c0,1.68-.49,3.18-1.48,4.55-.98,1.35-2.63,2.72-4.95,4.08l7.6,7.34c1.18-1.57,2.17-3.86,2.98-6.89h5.31c-1.01,4.16-2.67,7.55-4.91,10.16l6.61,6.4h-6.65l-3.28-3.18c-1.49,1.2-3.09,2.11-4.77,2.71-1.7.6-3.56.91-5.6.91-3.38,0-6.02-.8-7.93-2.41s-2.88-3.78-2.88-6.54M531.56,119.24c2.68,0,4.96-.78,6.87-2.34l-8.4-8.27c-1.56.99-2.62,1.93-3.2,2.82-.58.87-.88,1.86-.88,2.98,0,1.43.51,2.6,1.53,3.49s2.4,1.34,4.1,1.34M528.27,98.05c0,.92.25,1.79.74,2.61s1.18,1.7,2.06,2.61c1.66-.94,2.82-1.82,3.47-2.62.68-.81.99-1.72.99-2.73,0-.95-.32-1.71-.96-2.28-.62-.57-1.48-.85-2.54-.85-1.16,0-2.08.31-2.74.89-.7.59-1.02,1.38-1.02,2.4M572.03,123.23l-9.32-26.82h-.17c.25,3.98.38,7.72.38,11.2v15.61h-4.76v-32.11h7.4l8.92,25.54h.13l9.17-25.54h7.42v32.11h-5.06v-15.87c0-1.59.04-3.67.12-6.24.08-2.56.15-4.12.2-4.66h-.17l-9.65,26.77h-4.63.02-.01ZM641.01,91.13v20.77c0,2.37-.51,4.44-1.53,6.23s-2.49,3.15-4.41,4.12c-1.93.96-4.23,1.44-6.9,1.44-3.98,0-7.08-1.05-9.29-3.16s-3.31-5.01-3.31-8.7v-20.69h5.27v20.31c0,2.65.6,4.61,1.85,5.87,1.23,1.26,3.11,1.88,5.67,1.88,4.95,0,7.42-2.6,7.42-7.8v-20.28h5.25-.03ZM678.24,123.23h-6.44l-15.8-25.58h-.17l.11,1.43c.2,2.72.31,5.2.31,7.46v16.7h-4.76v-32.11h6.37l15.74,25.46h.13c-.02-.34-.08-1.57-.17-3.67-.08-2.12-.13-3.77-.13-4.95v-16.82h4.81v32.11h.01v-.03h-.01ZM688.96,91.13h5.25v32.11h-5.25v-32.11ZM723.24,91.13h5.45l-11.25,32.11h-5.54l-11.2-32.11h5.4l6.69,19.96c.35.95.73,2.17,1.13,3.67s.66,2.62.77,3.35c.18-1.12.48-2.41.88-3.86s.72-2.55.96-3.26l6.69-19.87h.01ZM753.32,123.23h-18.16v-32.11h18.16v4.43h-12.92v8.74h12.11v4.39h-12.11v10.09h12.92v4.44h0ZM767.75,110.41v12.83h-5.25v-32.11h9.08c4.15,0,7.21.77,9.19,2.32,1.99,1.55,2.99,3.89,2.99,7.02,0,4-2.09,6.85-6.24,8.55l9.08,14.22h-5.97l-7.69-12.83h-5.19,0ZM767.75,106.07h3.63c2.45,0,4.21-.45,5.31-1.35,1.11-.91,1.66-2.26,1.66-4.03s-.59-3.12-1.77-3.91-2.98-1.18-5.36-1.18h-3.46v10.49h-.01v-.02ZM812.03,114.52c0,2.86-1.02,5.1-3.1,6.72-2.06,1.63-4.91,2.44-8.55,2.44s-6.6-.56-8.92-1.7v-4.96c1.46.7,3.02,1.23,4.68,1.63s3.18.59,4.6.59c2.09,0,3.6-.4,4.6-1.18.99-.8,1.48-1.85,1.48-3.18,0-1.19-.45-2.23-1.35-3.05-.91-.83-2.79-1.83-5.62-2.97-2.92-1.18-5-2.54-6.19-4.05-1.19-1.53-1.8-3.37-1.8-5.49,0-2.68.95-4.79,2.86-6.32,1.9-1.54,4.45-2.3,7.67-2.3s6.13.68,9.17,2.03l-1.67,4.29c-2.86-1.19-5.4-1.8-7.65-1.8-1.7,0-2.99.37-3.86,1.12-.88.74-1.31,1.71-1.31,2.94,0,.83.17,1.55.53,2.14s.92,1.16,1.73,1.69c.81.53,2.25,1.21,4.34,2.09,2.34.98,4.08,1.89,5.18,2.74,1.11.84,1.9,1.8,2.43,2.88.52,1.06.77,2.32.77,3.78M820.49,91.13h5.25v32.11h-5.25v-32.11ZM847.56,123.23h-5.25v-27.6h-9.45v-4.51h24.14v4.51h-9.45v27.6h.01,0ZM873.23,105.79l7.61-14.66h5.7l-10.69,19.66v12.44h-5.28v-12.26l-10.66-19.84h5.71l7.6,14.66h.01ZM359.69,170.13c-7.05,0-12.63,2.34-16.73,7.05-4.08,4.71-6.13,11.15-6.13,19.32s1.97,14.9,5.91,19.48c3.95,4.59,9.56,6.88,16.86,6.88,4.48,0,9.59-.81,15.34-2.43v6.55c-4.44,1.68-9.95,2.51-16.48,2.51-9.47,0-16.77-2.87-21.91-8.61-5.14-5.74-7.72-13.9-7.72-24.49,0-6.62,1.25-12.42,3.72-17.4s6.05-8.82,10.72-11.53c4.67-2.7,10.16-4.04,16.51-4.04,6.74,0,12.62,1.23,17.68,3.69l-3.16,6.42c-4.87-2.28-9.72-3.43-14.6-3.43M429.46,204.49c0,7.85-1.98,13.99-5.94,18.41s-9.43,6.61-16.4,6.61c-4.31,0-8.14-1-11.46-3.03-3.34-2.03-5.92-4.93-7.74-8.7-1.82-3.78-2.72-8.2-2.72-13.28,0-7.85,1.97-13.97,5.89-18.34,3.92-4.38,9.38-6.57,16.35-6.57s12.1,2.25,16.06,6.73c3.97,4.48,5.96,10.54,5.96,18.2M392.76,204.49c0,6.15,1.23,10.84,3.69,14.08,2.46,3.22,6.09,4.83,10.86,4.83s8.4-1.6,10.87-4.81c2.47-3.21,3.72-7.9,3.72-14.1s-1.25-10.79-3.72-13.95c-2.48-3.18-6.13-4.76-10.97-4.76s-8.38,1.57-10.82,4.71c-2.44,3.13-3.65,7.81-3.65,14.02M442.24,160.24h7.29v68.39h-7.29v-68.39ZM465.02,160.24h7.29v68.39h-7.29v-68.39ZM508.14,229.51c-7.11,0-12.73-2.16-16.86-6.51-4.13-4.34-6.17-10.35-6.17-18.06s1.9-13.93,5.73-18.51c3.83-4.58,8.96-6.86,15.41-6.86,6.04,0,10.82,1.99,14.32,5.96,3.53,3.97,5.28,9.2,5.28,15.71v4.61h-33.18c.14,5.66,1.58,9.95,4.29,12.88,2.71,2.92,6.53,4.39,11.44,4.39,5.18,0,10.31-1.1,15.39-3.26v6.51c-2.58,1.12-5.02,1.9-7.31,2.41-2.3.48-5.09.73-8.33.73M506.16,185.69c-3.87,0-6.96,1.27-9.25,3.78-2.3,2.52-3.65,6.01-4.05,10.46h25.18c0-4.6-1.02-8.13-3.08-10.57s-4.99-3.67-8.79-3.67M577.72,180.45v4.61l-8.92,1.05c.82,1.02,1.56,2.36,2.2,4.02.63,1.66.97,3.53.97,5.6,0,4.72-1.61,8.49-4.83,11.29s-7.66,4.23-13.28,4.23c-1.44,0-2.79-.12-4.04-.35-3.1,1.65-4.66,3.72-4.66,6.19,0,1.32.54,2.29,1.63,2.92,1.1.62,2.96.95,5.58.95h8.54c5.22,0,9.22,1.11,12.02,3.3,2.8,2.2,4.2,5.39,4.2,9.58,0,5.33-2.14,9.4-6.42,12.19-4.29,2.8-10.52,4.2-18.72,4.2-6.3,0-11.16-1.17-14.58-3.51-3.42-2.34-5.13-5.66-5.13-9.94,0-2.92.94-5.47,2.82-7.61s4.51-3.59,7.91-4.35c-1.23-.55-2.26-1.41-3.1-2.6-.83-1.17-1.26-2.54-1.26-4.08,0-1.75.46-3.3,1.4-4.61.94-1.32,2.43-2.6,4.43-3.83-2.49-1.02-4.52-2.77-6.09-5.23-1.57-2.46-2.34-5.28-2.34-8.43,0-5.28,1.58-9.34,4.74-12.19,3.17-2.86,7.66-4.29,13.45-4.29,2.52,0,4.79.3,6.82.88h16.68-.02.01ZM539.3,236.72c0,2.61,1.11,4.59,3.3,5.94,2.2,1.34,5.34,2.03,9.45,2.03,6.12,0,10.67-.91,13.59-2.74,2.96-1.83,4.41-4.32,4.41-7.44,0-2.61-.81-4.41-2.43-5.44-1.61-1-4.65-1.52-9.1-1.52h-8.74c-3.31,0-5.89.8-7.74,2.37-1.85,1.58-2.77,3.85-2.77,6.82M543.27,195.87c0,3.38.95,5.92,2.86,7.65,1.9,1.73,4.56,2.6,7.96,2.6,7.11,0,10.68-3.45,10.68-10.38s-3.6-10.85-10.82-10.85c-3.43,0-6.06.92-7.91,2.77s-2.77,4.59-2.77,8.22M607.96,229.51c-7.11,0-12.73-2.16-16.86-6.51-4.13-4.34-6.17-10.35-6.17-18.06s1.9-13.93,5.73-18.51c3.83-4.58,8.96-6.86,15.41-6.86,6.04,0,10.82,1.99,14.32,5.96,3.53,3.97,5.28,9.2,5.28,15.71v4.61h-33.18c.14,5.66,1.58,9.95,4.29,12.88,2.71,2.92,6.53,4.39,11.44,4.39,5.18,0,10.31-1.1,15.39-3.26v6.51c-2.58,1.12-5.02,1.9-7.31,2.41-2.3.48-5.09.73-8.33.73M605.99,185.69c-3.87,0-6.96,1.27-9.25,3.78-2.3,2.52-3.65,6.01-4.05,10.46h25.18c0-4.6-1.02-8.13-3.08-10.57-2.06-2.45-4.99-3.67-8.79-3.67M703.09,204.49c0,7.85-1.98,13.99-5.94,18.41s-9.43,6.61-16.4,6.61c-4.31,0-8.14-1-11.46-3.03s-5.92-4.93-7.74-8.7c-1.82-3.78-2.72-8.2-2.72-13.28,0-7.85,1.97-13.97,5.89-18.34,3.92-4.38,9.38-6.57,16.35-6.57s12.1,2.25,16.06,6.73c3.97,4.48,5.96,10.54,5.96,18.2M666.38,204.49c0,6.15,1.23,10.84,3.69,14.08,2.46,3.22,6.09,4.83,10.86,4.83s8.4-1.6,10.87-4.81,3.72-7.9,3.72-14.1-1.25-10.79-3.72-13.95c-2.48-3.18-6.13-4.76-10.97-4.76s-8.38,1.57-10.82,4.71c-2.44,3.13-3.65,7.81-3.65,14.02M737.6,186.13h-12.26v42.5h-7.29v-42.5h-8.61v-3.3l8.61-2.63v-2.68c0-11.83,5.17-17.75,15.53-17.75,2.55,0,5.54.52,8.97,1.55l-1.88,5.85c-2.82-.91-5.22-1.35-7.21-1.35-2.74,0-4.79.91-6.11,2.74s-1.98,4.76-1.98,8.81v3.12h12.26v5.67h-.02v-.03ZM811.26,228.63l-7.99-20.43h-25.76l-7.91,20.43h-7.56l25.42-64.53h6.29l25.27,64.53h-7.75ZM800.93,201.47l-7.46-19.91c-.97-2.52-1.97-5.6-2.99-9.27-.63,2.82-1.57,5.9-2.76,9.27l-7.56,19.91h20.79-.01.01-.01ZM848.72,179.57c2.14,0,4.05.17,5.75.53l-1,6.77c-1.99-.44-3.76-.66-5.28-.66-3.89,0-7.24,1.58-10,4.75-2.77,3.16-4.16,7.1-4.16,11.82v25.85h-7.29v-48.17h6.02l.83,8.92h.35c1.79-3.13,3.95-5.55,6.46-7.26,2.52-1.7,5.29-2.55,8.31-2.55M882.72,229.51c-6.98,0-12.38-2.14-16.19-6.44-3.82-4.3-5.73-10.38-5.73-18.23s1.94-14.28,5.83-18.68c3.88-4.39,9.41-6.59,16.59-6.59,2.31,0,4.63.25,6.94.75,2.31.51,4.14,1.1,5.46,1.75l-2.25,6.19c-1.61-.63-3.38-1.18-5.28-1.6-1.9-.42-3.59-.62-5.06-.62-9.78,0-14.68,6.24-14.68,18.72,0,5.92,1.19,10.46,3.58,13.62s5.92,4.75,10.62,4.75c4.01,0,8.14-.87,12.35-2.6v6.46c-3.23,1.68-7.28,2.51-12.17,2.51M939.3,228.63v-31.16c0-3.92-.89-6.86-2.68-8.79s-4.59-2.9-8.39-2.9c-5.08,0-8.76,1.38-11.1,4.14-2.32,2.75-3.49,7.27-3.49,13.54v25.18h-7.29v-68.39h7.29v20.71c0,2.49-.12,4.56-.35,6.19h.44c1.44-2.31,3.47-4.15,6.13-5.48,2.65-1.33,5.68-2.01,9.08-2.01,5.89,0,10.31,1.39,13.26,4.19,2.96,2.8,4.41,7.25,4.41,13.34v31.43h-7.31ZM960.98,167.41c0-1.68.41-2.89,1.23-3.66s1.85-1.16,3.08-1.16,2.17.4,3.03,1.18c.85.8,1.28,2.01,1.28,3.65s-.42,2.87-1.28,3.67c-.85.81-1.86,1.2-3.03,1.2s-2.26-.4-3.08-1.2-1.23-2.03-1.23-3.67M968.89,228.63h-7.29v-48.17h7.29v48.17h0ZM999.92,223.48c1.29,0,2.53-.09,3.74-.28,1.21-.18,2.15-.39,2.86-.59v5.58c-.8.39-1.96.7-3.49.95-1.54.25-2.92.38-4.16.38-9.32,0-13.97-4.9-13.97-14.72v-28.66h-6.9v-3.51l6.9-3.03,3.08-10.29h4.23v11.17h13.97v5.67h-13.97v28.35c0,2.9.7,5.13,2.06,6.68,1.38,1.56,3.27,2.32,5.68,2.32M1036.5,229.51c-7.11,0-12.73-2.16-16.86-6.51-4.13-4.34-6.17-10.35-6.17-18.06s1.9-13.93,5.73-18.51,8.96-6.86,15.41-6.86c6.04,0,10.82,1.99,14.32,5.96,3.51,3.97,5.28,9.2,5.28,15.71v4.61h-33.18c.14,5.66,1.57,9.95,4.29,12.88,2.71,2.92,6.53,4.39,11.44,4.39,5.18,0,10.31-1.1,15.39-3.26v6.51c-2.58,1.12-5.02,1.9-7.31,2.41-2.3.48-5.09.73-8.33.73M1034.51,185.69c-3.87,0-6.96,1.27-9.26,3.78s-3.65,6.01-4.05,10.46h25.18c0-4.6-1.02-8.13-3.08-10.57-2.06-2.45-4.99-3.67-8.79-3.67M1085.9,229.51c-6.98,0-12.38-2.14-16.19-6.44-3.83-4.3-5.73-10.38-5.73-18.23s1.94-14.28,5.83-18.68c3.88-4.39,9.41-6.59,16.59-6.59,2.31,0,4.63.25,6.94.75,2.31.51,4.14,1.1,5.46,1.75l-2.25,6.19c-1.61-.63-3.38-1.18-5.28-1.6-1.9-.42-3.59-.62-5.06-.62-9.78,0-14.68,6.24-14.68,18.72,0,5.92,1.19,10.46,3.58,13.62,2.4,3.16,5.92,4.75,10.62,4.75,4.01,0,8.14-.87,12.35-2.6v6.46c-3.22,1.68-7.28,2.51-12.17,2.51M1125.06,223.48c1.29,0,2.53-.09,3.74-.28,1.21-.18,2.15-.39,2.86-.59v5.58c-.8.39-1.96.7-3.49.95-1.54.25-2.92.38-4.16.38-9.32,0-13.97-4.9-13.97-14.72v-28.66h-6.9v-3.51l6.9-3.03,3.08-10.29h4.23v11.17h13.97v5.67h-13.97v28.35c0,2.9.7,5.13,2.06,6.68,1.38,1.56,3.27,2.32,5.68,2.32M1148.15,180.45v31.25c0,3.92.89,6.86,2.68,8.79s4.59,2.9,8.39,2.9c5.05,0,8.72-1.38,11.05-4.14,2.32-2.75,3.49-7.26,3.49-13.49v-25.32h7.29v48.17h-6.02l-1.05-6.46h-.4c-1.49,2.37-3.57,4.19-6.22,5.46-2.66,1.27-5.68,1.89-9.09,1.89-5.87,0-10.26-1.39-13.16-4.18-2.91-2.79-4.38-7.24-4.38-13.37v-31.53h7.43ZM1218.51,179.57c2.14,0,4.05.17,5.75.53l-1,6.77c-1.99-.44-3.75-.66-5.28-.66-3.89,0-7.24,1.58-10,4.75-2.77,3.16-4.16,7.1-4.16,11.82v25.85h-7.29v-48.17h6.02l.83,8.92h.35c1.79-3.13,3.95-5.55,6.46-7.26,2.52-1.7,5.29-2.55,8.31-2.55M1253.63,229.51c-7.11,0-12.73-2.16-16.86-6.51-4.13-4.34-6.17-10.35-6.17-18.06s1.9-13.93,5.73-18.51,8.96-6.86,15.41-6.86c6.04,0,10.82,1.99,14.32,5.96,3.51,3.97,5.28,9.2,5.28,15.71v4.61h-33.18c.14,5.66,1.57,9.95,4.29,12.88,2.71,2.92,6.53,4.39,11.44,4.39,5.18,0,10.31-1.1,15.39-3.26v6.51c-2.58,1.12-5.02,1.9-7.31,2.41-2.3.48-5.09.73-8.33.73M1251.65,185.69c-3.87,0-6.96,1.27-9.26,3.78-2.3,2.51-3.65,6.01-4.05,10.46h25.18c0-4.6-1.02-8.13-3.08-10.57-2.05-2.45-4.99-3.67-8.79-3.67"/>
      </g>
    </g>
  </g>
</svg>
