<svg xmlns="http://www.w3.org/2000/svg" viewBox="0 0 760 360" role="img" aria-label="Visitor map illustration">
  <rect width="760" height="360" rx="4" fill="#eeeeec"/>
  <g fill="#fafafa" opacity="0.95">
    <path d="M105 105c31-31 95-49 139-26 26 13 12 35 44 43 28 7 48 12 57 39 7 22-12 43-42 45-35 3-40 29-73 27-27-2-33-28-56-29-26-1-44 16-67 5-28-13-28-47-2-104z"/>
    <path d="M297 184c29 8 49 39 42 67-6 26-35 45-62 36-28-9-43-45-33-72 8-22 29-38 53-31z"/>
    <path d="M387 91c29-19 77-26 112-10 28 13 40 38 22 59-16 19-45 13-61 34-17 22 2 44-18 59-20 15-57 6-70-18-15-28 14-45 4-72-8-22-18-33 11-52z"/>
    <path d="M516 96c31-24 88-26 118-3 30 22 23 59-13 72-25 9-46-4-63 17-18 22 3 46-20 61-21 14-55 1-62-25-6-21 9-37 9-58 1-24-14-44 31-64z"/>
    <path d="M589 223c27-11 62 2 70 28 7 25-16 49-45 49-31 1-52-26-43-51 3-10 9-20 18-26z"/>
  </g>
  <g opacity="0.36" stroke="#d8d8d6" stroke-width="1">
    <path d="M80 70h600M80 130h600M80 190h600M80 250h600M80 310h600"/>
    <path d="M120 45v275M220 45v275M320 45v275M420 45v275M520 45v275M620 45v275"/>
  </g>
  <g fill="#7197c9" stroke="#fff" stroke-width="2">
    <circle cx="180" cy="150" r="11"/>
    <circle cx="213" cy="130" r="7"/>
    <circle cx="236" cy="136" r="7"/>
    <circle cx="255" cy="122" r="6"/>
    <circle cx="281" cy="138" r="7"/>
    <circle cx="302" cy="119" r="6"/>
    <circle cx="336" cy="104" r="5"/>
    <circle cx="419" cy="88" r="6"/>
    <circle cx="461" cy="115" r="5"/>
    <circle cx="516" cy="159" r="6"/>
    <circle cx="585" cy="83" r="5"/>
    <circle cx="616" cy="245" r="9"/>
    <circle cx="650" cy="128" r="5"/>
  </g>
  <circle cx="254" cy="157" r="9" fill="#d33f35" stroke="#fff" stroke-width="2"/>
  <g filter="url(#shadow)">
    <rect x="58" y="87" width="286" height="44" rx="5" fill="#2a2a2a"/>
    <text x="75" y="116" fill="#fff" font-family="Arial, Helvetica, sans-serif" font-size="20" font-weight="700">Visitors from around the world</text>
  </g>
  <g>
    <rect x="34" y="265" width="38" height="38" fill="#fff" stroke="#e4e4e4"/>
    <rect x="34" y="303" width="38" height="38" fill="#fff" stroke="#e4e4e4"/>
    <path d="M53 276v16M45 284h16" stroke="#777" stroke-width="3" stroke-linecap="round"/>
    <path d="M45 322h16" stroke="#777" stroke-width="3" stroke-linecap="round"/>
  </g>
  <defs>
    <filter id="shadow" x="44" y="77" width="314" height="72" filterUnits="userSpaceOnUse">
      <feDropShadow dx="0" dy="2" stdDeviation="2" flood-color="#000" flood-opacity="0.22"/>
    </filter>
  </defs>
</svg>
